<svg width="21" height="21" viewBox="0 0 21 21" fill="none" xmlns="http://www.w3.org/2000/svg">
<g id="Other-Pay-Method">
<g id="Group 3019">
<path id="Vector" d="M20.369 10.4781C20.3698 9.79663 20.3118 9.1164 20.1956 8.44482H10.6998V12.296H16.1385C16.0272 12.9111 15.7917 13.4975 15.446 14.0197C15.1004 14.542 14.6519 14.9893 14.1275 15.3348V17.8346H17.3734C19.2739 16.0944 20.369 13.521 20.369 10.4781Z" fill="#4285F4"/>
<path id="Vector_2" d="M10.6997 20.25C13.417 20.25 15.7049 19.3639 17.3734 17.8362L14.1274 15.3364C13.224 15.9447 12.0605 16.2919 10.6997 16.2919C8.07334 16.2919 5.84414 14.5336 5.04699 12.1643H1.70319V14.7406C2.54126 16.3967 3.82635 17.7889 5.415 18.7618C7.00364 19.7347 8.8333 20.2499 10.6997 20.25Z" fill="#34A853"/>
<path id="Vector_3" d="M5.04698 12.164C4.62556 10.9224 4.62556 9.57793 5.04698 8.33639V5.76013H1.70317C0.998154 7.15333 0.630981 8.69096 0.630981 10.2502C0.630981 11.8094 0.998154 13.347 1.70317 14.7402L5.04698 12.164Z" fill="#FBBC04"/>
<path id="Vector_4" d="M10.6997 4.20879C12.1357 4.18549 13.5232 4.72429 14.5624 5.70872L17.4363 2.85469C15.6139 1.15488 13.1997 0.221659 10.6997 0.250656C8.8333 0.250741 7.00364 0.765984 5.415 1.73886C3.82635 2.71174 2.54126 4.10397 1.70319 5.7601L5.04699 8.33636C5.84414 5.96704 8.07334 4.20879 10.6997 4.20879Z" fill="#EA4335"/>
</g>
</g>
</svg>
