<?xml version="1.0" encoding="utf-8"?>
<!DOCTYPE svg PUBLIC "-//W3C//DTD SVG 1.0//EN" "http://www.w3.org/TR/2001/REC-SVG-20010904/DTD/svg10.dtd">
<svg version="1.0" xmlns="http://www.w3.org/2000/svg" width="2768px" height="1072px" viewBox="0 0 2768 1072" preserveAspectRatio="xMidYMid meet">
 <g fill="#282a2d">
  <path d="M1061.8 621.1 c-0.2 -40.1 -0.2 -75.1 0 -77.8 l0.4 -4.8 75.1 0 75.2 0 9.2 -4.7 c5.7 -2.9 11.1 -6.7 14.5 -10 5 -4.9 5.6 -6 7.2 -13.1 4.7 -19.8 -2.1 -34 -20.2 -42.9 l-6.7 -3.3 -77.5 -0.5 -77.5 -0.5 -0.2 -35.2 -0.1 -35.3 79.1 0 c82.2 0 96.9 0.6 111.6 4.2 19.6 4.8 37.2 14.8 49.8 28.3 9.3 9.9 13.5 16.6 18 28.7 4.8 12.6 6.2 20.8 6.9 38.8 0.9 21.7 -1.6 35 -9.6 51 -4.7 9.3 -11.5 18.4 -18.3 24.5 -6.7 6.1 -21.9 16.1 -26.6 17.5 -8.1 2.5 -8.1 2.6 -3.7 7.3 4.4 4.7 15.6 21.3 15.6 23.2 0 0.8 -6.7 3.6 -16.7 7 -32.7 11.2 -54.8 18.5 -55.9 18.5 -0.6 0 -5 -5.5 -9.7 -12.2 -9.5 -13.8 -18 -25.6 -19.7 -27.6 -0.9 -1 -5.4 -1.2 -18.2 -1.2 -9.4 0.1 -17.7 0.4 -18.5 0.7 -1.1 0.4 -1.3 8.8 -1.3 46.4 l0 45.9 -40.9 0 -41 0 -0.3 -72.9z"/>
  <path d="M1390 543.5 l0 -150.5 121.6 0 121.6 0 -0.4 35 -0.3 35 -80.7 0 -80.8 0 0 23.5 0 23.5 72.8 0 c40.1 0 73.1 0.2 73.3 0.4 0.2 0.2 0.3 14.6 0.1 32 l-0.3 31.6 -71.3 0 c-39.3 0 -72.1 0.3 -72.9 0.6 -1.3 0.5 -1.5 4.3 -1.6 24.7 l-0.2 24.2 81.8 0 81.7 0 0.1 35 0 35 -122.2 0.3 -122.3 0.2 0 -150.5z"/>
  <path d="M2012 543.5 l0 -150.5 41.5 0 41.5 0 0 114 0 114 72 0 72 0 -0.2 36.3 -0.3 36.2 -113.2 0.3 -113.3 0.2 0 -150.5z"/>
  <path d="M2386 637.8 l0 -56.3 -2.9 -5 c-1.5 -2.7 -7.7 -13.1 -13.8 -23 -6 -9.9 -17.2 -28.2 -24.9 -40.7 -7.6 -12.5 -16.7 -27.6 -20.2 -33.5 -3.5 -6 -9.3 -15.5 -12.9 -21.3 -14 -22.3 -16.8 -26.8 -22.8 -37 -3.4 -5.8 -8.6 -14.3 -11.4 -19 l-5.2 -8.5 46.6 -0.3 c36.5 -0.2 46.9 0.1 47.8 1 0.7 0.7 2.9 4.7 4.9 8.8 5.5 11.1 35.7 64.5 43.3 76.4 4.4 7 10.9 20.8 10.7 22.6 -0.1 1 0 1.1 0.4 0.2 0.5 -1 0.9 -1 1.9 -0.2 1.1 0.9 2.5 -1.1 6.9 -10.2 3 -6.2 9 -17.1 13.2 -24.3 10.4 -17.7 25.6 -45 31.4 -56.5 2.6 -5.2 6.2 -11.4 7.9 -13.7 l3.1 -4.3 45.5 -0.2 c25 -0.2 45.5 0 45.5 0.4 0 0.4 -0.4 0.9 -0.9 1.2 -0.9 0.6 -20 32.1 -31.6 52.1 -3.1 5.5 -9.7 16.3 -14.5 24 -4.8 7.7 -12 19.4 -16 26 -4 6.6 -10.3 17 -14 23 -3.7 6.1 -8.7 14.3 -11.1 18.3 -2.4 4 -5.6 9.2 -7.1 11.5 -1.5 2.3 -4 6.5 -5.6 9.2 -1.6 2.8 -5.2 8.8 -8 13.4 l-5.2 8.4 0 56.3 c0 50.3 -0.2 56.2 -1.6 56.8 -0.9 0.3 -19.1 0.6 -40.5 0.6 l-38.9 0 0 -56.2z"/>
  <path d="M925 613 l0 -79.1 40.2 0.6 c22.1 0.3 40.3 0.7 40.5 0.8 0.1 0.2 0.3 35.4 0.3 78.3 l0 77.9 -40.5 0.3 -40.5 0.2 0 -79z"/>
  <path d="M1701 691.3 c0 -0.5 -0.1 -34.2 -0.2 -75 l-0.3 -74.2 69.5 -0.3 69.5 -0.3 7 -3.4 c7.9 -3.9 18 -13.2 21.3 -19.6 5.1 -10.1 5.5 -26.8 0.8 -36.7 -3.3 -6.8 -11.6 -15 -18.3 -18.1 -4.8 -2.2 -5.3 -2.2 -77.3 -2.7 l-72.5 -0.5 -0.3 -34.3 -0.2 -34.3 78.2 0.4 c74.6 0.4 78.8 0.5 89.3 2.5 13.6 2.6 21.9 5.6 34.9 12.6 12.1 6.6 15.1 8.7 23.8 17.2 6.6 6.3 16 20.2 20 29.2 3.6 8 6.8 25.1 7.5 38.9 1 22 -2.4 37.5 -12.5 56.3 -5.6 10.4 -8.1 13.9 -15.2 21.1 -10.2 10.4 -16.8 14.8 -33.4 22.3 -13.5 6 -19 7.6 -36.1 10.1 -10.5 1.6 -44.5 3.4 -64.2 3.5 l-9.3 0 -0.2 42.8 -0.3 42.7 -40.7 0.3 c-22.5 0.1 -40.8 -0.1 -40.8 -0.5z"/>
  <path d="M925 427.5 l0 -35.5 40.5 0 40.5 0 0 34.5 c0 19 0 34.8 0 35.3 0 0.4 -18.2 0.8 -40.5 1 l-40.5 0.3 0 -35.6z"/>
 </g>
 <g fill="#263e73">
  <path d="M565.5 756.9 c-5.5 -2.1 -15.4 -5.8 -22 -8.3 -6.6 -2.4 -14.7 -5.7 -18 -7.1 -3.3 -1.5 -14.1 -6.1 -24 -10.2 -37.1 -15.4 -99.5 -41.7 -104 -43.7 -5.2 -2.4 -24.6 -10.6 -25 -10.6 -0.3 0 -2.9 -1.2 -6 -2.6 -5.6 -2.7 -6.9 -4.7 -3.7 -5.9 0.9 -0.3 15.4 -0.3 32.2 0.2 16.8 0.4 31.6 0.7 33 0.7 1.4 -0.1 25.1 -0.4 52.6 -0.7 42.3 -0.5 50.5 -0.4 52 0.8 1.7 1.3 1.7 1.4 0.2 1.5 -1.5 0 -1.3 0.6 1.1 4.3 3.3 5 27.8 43.5 33.1 52.2 2 3.3 6.3 10.2 9.5 15.4 5.2 8.3 8.2 16.1 6.7 17.6 -1.4 1.4 -8.6 -0.1 -17.7 -3.6z"/>
  <path d="M1328.5 692.5 c-0.5 -0.2 -2.7 -0.6 -4.7 -1 -3.6 -0.5 -3.8 -0.8 -3.8 -4.1 0 -3.1 0.4 -3.7 3.5 -5 1.9 -0.7 4 -1.4 4.7 -1.4 1 0 5.8 7 7.6 11.2 0.4 0.8 -5.3 1 -7.3 0.3z"/>
 </g>
 <g fill="#1f438d">
  <path d="M202.1 840 c-2.2 -1.9 -2.3 -2.4 -1.7 -9.8 0.4 -4.2 1.3 -12.9 2.1 -19.2 0.8 -6.3 1.7 -14.9 2 -19 1 -11.4 3.5 -34.2 4 -36.7 0.3 -1.4 1.3 -2.3 2.4 -2.3 2.3 0 3.1 2.6 3.1 10.3 0 4 0.4 5.9 1.4 6.3 0.8 0.3 1.7 1.6 2 3 0.4 1.5 1.4 2.4 2.6 2.4 1 0 2.5 0.8 3.2 1.8 0.9 1.4 3.1 2 8.1 2.5 4 0.4 6.7 0.2 6.7 -0.3 0 -0.6 0.5 -1 1.1 -1 0.7 0 1.7 -0.7 2.4 -1.6 0.7 -1 3.2 -1.9 6.4 -2.2 3.1 -0.3 5.5 -1 5.8 -1.8 0.3 -0.8 1.1 -1.4 1.9 -1.4 0.8 0 1.4 -0.4 1.4 -1 0 -1.5 3.8 -5 5.5 -5 0.8 0 1.5 -0.7 1.5 -1.6 0 -0.8 1.3 -2 2.9 -2.5 1.5 -0.6 3.3 -2.1 4 -3.5 0.6 -1.3 1.9 -2.8 2.8 -3.1 1 -0.4 3.2 -2.1 4.8 -3.7 1.7 -1.7 4.4 -4.3 6.2 -5.7 1.7 -1.4 3.3 -3.5 3.4 -4.5 0.3 -1.1 1.7 -2.3 3.7 -2.9 2 -0.6 3.2 -1.6 3.2 -2.6 0 -3.9 1.1 -4.9 5.6 -4.9 2.4 0 4.4 0.3 4.4 0.6 0 0.9 -9.5 12.4 -22.5 27.2 -6.1 7 -13.5 15.7 -16.5 19.3 -25.4 30.5 -53.2 60.9 -58.2 63.5 -3.3 1.7 -2.8 1.8 -5.7 -0.6z"/>
  <path d="M1313.3 690.3 c-3.1 -1.2 -0.7 -10.1 3.7 -14.1 5.2 -4.6 7.2 -3.9 11.8 3.9 l2.2 3.6 -4 1.6 c-2.9 1.1 -4 2.1 -4 3.6 0 1.8 -0.6 2.1 -4.2 2 -2.4 0 -4.9 -0.3 -5.5 -0.6z"/>
  <path d="M361.7 671.9 c-0.9 -0.6 -1.7 -1.8 -1.7 -2.8 0 -1.5 1.3 -2.1 6.5 -3.1 5.1 -1 10.8 -1 26.7 0 12.6 0.7 30.7 0.9 47.8 0.5 26.1 -0.5 62.5 -1.2 120.5 -2 14.3 -0.2 30.5 0 36 0.3 9.2 0.6 10 0.9 10.3 2.9 0.2 1.6 -0.3 2.2 -2.5 2.7 -3.2 0.6 -164 2.2 -190.3 1.8 -9.6 -0.1 -24.4 -0.4 -32.9 -0.7 -8.5 -0.2 -16.1 0 -17 0.5 -1 0.5 -2.4 0.4 -3.4 -0.1z"/>
 </g>
 <g fill="#224f98">
  <path d="M223 784 c0 -1.8 -4.3 -6 -6.2 -6 -1 0 -2 -1 -2.4 -2.4 -0.3 -1.5 -1.7 -2.9 -3.2 -3.4 -1.8 -0.6 -2.6 -1.6 -2.6 -3.4 -0.1 -1.5 0.2 -2.4 0.6 -2.2 1.1 0.7 2.2 -1.7 1.1 -2.5 -1.6 -1 -2.1 -3.4 -1.2 -5.8 0.5 -1.3 0.5 -2.3 0.1 -2.3 -0.5 0 0 -6.4 0.9 -14.2 1 -7.9 2.9 -24 4.3 -35.8 3.9 -32.2 3.5 -30 5.7 -30 1.6 0 1.9 0.7 1.9 4.3 0 7.7 1.1 11.7 3.1 11.7 1.4 0 1.9 0.7 1.9 2.9 0 4.1 3.5 6.1 11 6.1 5.9 0 6 0.1 6.1 2.8 0 1.5 0.3 2.1 0.6 1.5 0.7 -1.9 9.3 -1.7 9.3 0.2 0 1.1 1.1 1.5 4 1.5 3.4 0 4.1 -0.4 4.6 -2.5 0.5 -2.1 1.2 -2.5 4 -2.5 2.4 0 3.4 0.5 3.4 1.5 0 0.8 0.7 1.5 1.5 1.5 0.9 0 1.5 1 1.6 2.3 0.1 1.7 0.2 1.8 0.6 0.4 0.7 -2.8 8.5 -2 9.8 1.1 1.4 3.3 3.9 2.3 4.5 -1.8 0.4 -2.8 1 -3.6 3 -3.8 1.4 -0.2 2.9 -1 3.3 -1.8 0.4 -0.8 1.6 -1.4 2.5 -1.4 0.9 0 2.6 -0.7 3.6 -1.5 1.1 -0.8 3.2 -1.5 4.8 -1.5 2.3 0 2.8 -0.4 2.8 -2.5 0 -2.1 0.5 -2.5 3 -2.5 1.7 0 3 -0.4 3 -1 0 -0.5 0.7 -1 1.5 -1 0.8 0 1.5 -0.4 1.5 -1 0 -0.5 0.7 -1 1.5 -1 0.9 0 2 -1.1 2.5 -2.4 0.5 -1.3 1.8 -2.7 2.9 -3.1 1.2 -0.3 2.1 -1 2.1 -1.4 0 -0.5 1.3 -1.1 2.9 -1.4 2.9 -0.6 13.6 -6.8 15.6 -9.1 1.4 -1.5 4.6 -3.5 6.7 -4.2 0.9 -0.3 2.2 -1.9 2.8 -3.5 0.7 -1.6 1.9 -2.9 2.6 -2.9 0.9 0 1.4 -1.1 1.4 -3 0 -2.5 0.4 -3 2.5 -3 1.6 0 2.5 -0.6 2.5 -1.5 0 -1 1 -1.5 3.4 -1.5 1.9 0 3.6 -0.5 3.8 -1.1 0.2 -0.6 3.1 -1.2 6.6 -1.3 4.5 -0.1 6.3 -0.5 6.7 -1.6 1.3 -4.1 13.5 -5.5 13.5 -1.6 0 0.9 1.7 0.9 6.5 0.2 l6.5 -1 0 -3.8 c0 -3.8 0 -3.8 4 -3.8 l4 0 0 4 c0 3.5 -0.3 4 -2.2 4.1 -1.4 0.1 -0.7 0.5 1.6 1 2.6 0.6 4.3 0.6 5 -0.1 0.5 -0.5 2 -1 3.3 -1 1.4 0 2.3 -0.6 2.3 -1.5 0 -0.8 0.7 -1.5 1.5 -1.5 1 0 1.5 -1 1.5 -3 0 -2.5 0.4 -3 2.4 -3 1.3 0 2.6 -0.5 2.8 -1 0.2 -0.6 2.7 -1.3 5.6 -1.7 4.8 -0.5 5.2 -0.4 5.2 1.6 0 1.8 0.6 2.1 3.9 2.1 2.2 0 4.4 -0.6 5.1 -1.5 0.7 -0.8 2.3 -1.5 3.6 -1.5 1.3 0 2.4 -0.5 2.4 -1.1 0 -0.6 1.7 -0.9 4.2 -0.7 3.9 0.3 4.4 0.6 4.9 3.3 0.5 2.1 0.7 2.4 0.8 0.9 0 -1.2 0.7 -2.4 1.5 -2.7 2.7 -1.1 23.9 -0.7 25.2 0.4 1.1 0.9 1.5 0.7 2 -0.5 0.4 -1 1.8 -1.6 4 -1.6 2.7 0 3.7 0.5 4.4 2.3 l0.9 2.2 0.7 -2.2 c0.5 -1.8 1.4 -2.3 4 -2.3 2.5 0 3.4 0.4 3.4 1.6 0 1.3 0.3 1.4 1.4 0.4 0.8 -0.6 3 -1.1 4.8 -1 5.6 0.3 6.5 0.1 7.1 -2 0.4 -1.6 1.4 -2 4.6 -2 2.3 0 4.1 0.5 4.1 1 0 0.6 2.3 1 5 1 4 0 5 -0.3 5 -1.6 0 -1.4 0.8 -1.6 5.2 -1.1 2.8 0.4 5.5 1.2 6 1.9 0.6 1 0.8 1 0.8 0 0 -1.1 1.9 -1.2 9.3 -0.6 5 0.4 10.2 1 11.5 1.5 1.3 0.5 2.2 0.5 2.2 -0.1 0 -0.6 0.7 -1 1.5 -1 0.8 0 1.5 -0.9 1.5 -2 0 -1.6 0.7 -2 3.5 -2 2.5 0 3.8 0.5 4.3 1.8 0.7 1.7 1.1 1.7 7.5 0.3 5.2 -1.2 6.7 -1.9 6.7 -3.3 0 -1.3 0.8 -1.8 2.5 -1.8 1.6 0 2.5 -0.6 2.5 -1.5 0 -1 1.1 -1.5 3.5 -1.5 2.8 0 3.5 0.4 3.5 2 0 2.3 2.5 2.7 3.4 0.5 0.3 -0.9 1.9 -1.5 4.1 -1.5 1.9 0 3.5 -0.4 3.5 -1 0 -0.5 1.8 -1 4 -1 2.9 0 4.3 0.5 5.2 2 0.7 1.1 2.1 2 3.1 2 1 0 2 0.7 2.4 1.6 0.5 1.2 1.1 1 3.4 -1.6 1.6 -1.7 2.9 -3.5 2.9 -4.1 0 -0.5 2.2 -0.9 4.8 -0.9 3.6 0 5.4 -0.5 6.7 -2 1 -1.1 2.9 -2 4.2 -2 1.6 0 2.3 -0.6 2.3 -2 0 -1.5 0.7 -2 2.5 -2 1.4 0 2.5 -0.4 2.5 -1 0 -0.5 0.7 -1 1.5 -1 1.6 0 6.5 -3.9 6.5 -5.1 0 -0.5 1 -1.9 2.2 -3.2 1.3 -1.3 4.2 -4.5 6.6 -7.1 4.2 -4.5 6.8 -5.5 10.5 -4 1.2 0.4 0.9 2 -1.9 8.7 -7.9 18.9 -13.9 28.8 -24.5 40.1 -11.6 12.4 -26.4 21.9 -45.6 29.3 -7.8 2.9 -25.2 4.5 -27.7 2.4 -0.9 -0.8 -10.2 -1.2 -30.6 -1.3 -25.6 -0.2 -29.4 0 -30.4 1.4 -0.8 1.2 -1.4 1.3 -2.2 0.4 -1.2 -1.3 -11.7 -1.3 -80.9 -0.1 -39 0.7 -54.2 0.6 -66 -0.1 -20.6 -1.3 -30 -0.8 -31.6 1.8 -0.4 0.6 -1.6 0.4 -3.2 -0.7 -2.4 -1.6 -2.6 -1.5 -3.2 0.7 -0.4 1.3 -1.9 3.4 -3.4 4.8 -2.3 2.3 -27.5 31.3 -44 50.7 -4.3 5.1 -6.6 7 -7.7 6.6 -1.9 -0.7 -3.8 1.8 -2.2 2.8 1.6 1 -0.8 3.9 -3.1 3.9 -2.4 0 -6 3 -4.3 3.6 1.8 0.8 1.5 2.4 -0.6 2.4 -1 0 -4.2 2.4 -7.3 5.3 -3 2.9 -6.3 5.6 -7.2 6 -1 0.4 -2.2 1.8 -2.8 3.1 -0.7 1.4 -2.5 2.9 -4 3.5 -1.6 0.5 -2.9 1.7 -2.9 2.5 0 0.9 -0.7 1.6 -1.5 1.6 -1.7 0 -5.5 3.5 -5.5 5 0 0.6 -0.5 1 -1.1 1 -0.7 0 -1.8 0.8 -2.5 1.8 -0.7 0.9 -1.8 1.7 -2.6 1.7 -0.7 0 -1.4 1.2 -1.6 2.8 -0.2 1.5 -0.8 2.7 -1.3 2.7 -0.9 0 -1.3 -1.5 -1 -3.4 0.1 -0.5 -0.5 -0.3 -1.4 0.4 -0.8 0.7 -1.8 1 -2.2 0.6 -0.3 -0.3 0 -0.6 0.7 -0.6 1.1 0 1.2 -0.2 0.1 -1.2 -1 -1.1 -1.5 -1 -2.5 0.5 -0.7 0.9 -1.9 1.7 -2.6 1.7 -0.7 0 -1 0.8 -0.7 2 0.5 2.1 -1.6 2.9 -2.8 1 -0.4 -0.6 -2.1 -0.8 -4.1 -0.4 -2.2 0.4 -3.4 0.2 -3.4 -0.5 0 -1.6 -1.6 -1.4 -3.4 0.4 -1.7 1.7 -4.6 2 -4.6 0.5z"/>
  <path d="M1304.8 689.5 c-5.4 -0.6 -10 -1.4 -10.3 -1.7 -1.2 -1.2 0.9 -8.9 3.1 -11.3 1.3 -1.5 2.4 -3 2.4 -3.6 0 -0.5 0.5 -0.9 1 -0.9 0.6 0 1 -0.9 1 -1.9 0 -1.1 0.8 -2.2 1.9 -2.6 1.5 -0.5 1.8 -1.3 1.3 -5 -0.4 -4.3 -0.4 -4.5 2.2 -4.5 1.6 0 2.6 -0.5 2.6 -1.5 0 -0.8 0.8 -1.5 1.8 -1.5 1.1 0 3.8 3.6 7.8 10.3 l6.1 10.2 -3 1.8 c-3.3 2 -6.2 4.7 -5.1 4.7 0.3 0 0.1 0.7 -0.6 1.5 -0.7 0.8 -1.5 2.7 -1.9 4.3 l-0.6 2.7 -9.7 -1z"/>
  <path d="M705.3 582.3 c-1.4 -0.5 -1.7 -5.2 -0.7 -9 0.5 -1.8 1.4 -2.3 4 -2.3 1.8 0 3.5 0.4 3.8 0.8 0.6 1.1 -4 11.2 -5.1 11.1 -0.4 0 -1.4 -0.3 -2 -0.6z"/>
 </g>
 <g fill="#245ba3">
  <path d="M262 719.6 c0 -1.7 1.6 -3 2.3 -1.9 0.3 0.5 -0.1 1.4 -0.9 2.1 -1.2 1 -1.4 1 -1.4 -0.2z"/>
  <path d="M273.6 719.4 c-0.9 -2.4 1.2 -4.4 2.4 -2.4 0.5 0.8 0.8 1.9 0.7 2.4 -0.6 1.7 -2.4 1.7 -3.1 0z"/>
  <path d="M252.8 718.3 c-1 -0.2 -1.8 -0.9 -1.8 -1.5 0 -0.5 -0.6 -0.8 -1.3 -0.5 -0.7 0.3 -2.1 -0.1 -3 -0.8 -1.6 -1.2 -1.6 -1.3 -0.1 -1.9 1.4 -0.5 1.5 -0.9 0.5 -1.9 -0.9 -0.9 -1.4 -0.9 -2.1 0.3 -0.9 1.3 -1 1.3 -1.1 0 -0.1 -0.8 -0.1 -1.8 0 -2.2 0.2 -1.3 -0.6 -0.9 -3.9 2.2 -3.3 3.1 -5 3.8 -5 2 0 -0.5 0.7 -1 1.5 -1 0.9 0 1.5 -0.9 1.5 -2.4 0 -1.4 0.7 -3.2 1.6 -4.1 0.9 -0.9 1.4 -1.8 1.2 -2.1 -0.3 -0.2 -1.1 0.2 -1.8 1.1 -1.1 1.4 -1.4 1.3 -2.7 -0.2 -1 -1.3 -1.6 -1.5 -1.9 -0.5 -0.8 1.8 -3.9 1.5 -5.9 -0.8 -1 -1.1 -2.1 -1.7 -2.5 -1.5 -1.1 0.7 -3.3 -5.2 -2.4 -6.6 0.5 -0.8 0.1 -1.1 -1.2 -0.8 -1.1 0.3 -2.8 -0.5 -4.3 -2 -1.4 -1.5 -1.7 -2.2 -0.8 -1.8 2.4 0.9 3 -0.9 1 -2.9 -1.3 -1.2 -1.4 -1.9 -0.5 -2.2 1.6 -0.5 1.6 -4.2 0 -4.2 -0.8 0 -0.9 -0.3 -0.3 -0.8 0.6 -0.4 1.1 -3.4 1.1 -6.7 0.2 -5.6 7.8 -79.6 9.1 -87.7 0.6 -4.1 3 -5.1 5.3 -2.3 0.8 1 3.1 1.5 7.1 1.5 4.6 0 5.9 0.3 5.9 1.5 0 0.8 0.5 1.5 1 1.5 0.6 0 1 -0.4 1 -1 0 -0.5 1.6 -1 3.5 -1 2.9 0 3.5 0.4 3.5 2.1 0 1.5 0.4 1.9 1.6 1.5 0.9 -0.3 2.7 -0.6 4 -0.6 1.5 0 2.4 -0.6 2.4 -1.5 0 -1.6 2.7 -1.9 7.9 -0.9 2.1 0.5 3.1 1.2 3.1 2.5 0 1.1 0.7 1.9 1.5 1.9 0.8 0 1.5 0.8 1.5 1.8 0 1.7 0.9 1.9 9.5 1.8 5.2 -0.1 9.5 -0.5 9.5 -1 0 -0.5 2.1 -0.6 4.8 -0.3 2.6 0.3 8.5 0.1 13.1 -0.5 6.8 -0.9 8.5 -1.5 8.8 -3 0.4 -1.4 1.5 -1.8 4.9 -1.8 3.9 0 4.4 0.3 4.5 2.3 0 1.2 0.3 1.6 0.6 1 0.2 -0.7 1.1 -1.3 1.8 -1.3 1.2 0 2.2 -1.9 3.4 -7 0.5 -2.1 1.3 -2.5 4.9 -2.8 2.8 -0.2 4.2 -0.8 4.2 -1.8 0 -0.8 0.7 -1.4 1.5 -1.4 0.8 0 1.5 -0.7 1.5 -1.5 0 -1.1 1.2 -1.5 4.5 -1.5 l4.5 0 0 -4 c0 -3.3 0.3 -4 2 -4 1.4 0 2 -0.7 2 -2.1 0 -1.2 0.8 -2.3 2 -2.6 1.1 -0.3 2 -1.1 2 -1.8 0 -0.7 0.7 -1.5 1.5 -1.9 0.8 -0.3 1.5 -1.7 1.5 -3.1 0 -1.6 0.6 -2.5 1.5 -2.5 0.8 0 1.5 -0.7 1.5 -1.5 0 -0.9 1 -1.5 2.6 -1.5 1.8 0 2.8 -0.6 3.1 -2.1 0.5 -1.6 1.2 -2 4.2 -1.8 2 0.2 4.2 -0.1 4.9 -0.5 0.7 -0.4 3.9 -0.5 7.1 -0.1 6.3 0.7 25 -1.1 26.6 -2.6 0.5 -0.5 1.7 -0.9 2.7 -0.9 1 0 1.8 -0.7 1.8 -1.5 0 -0.9 0.9 -1.5 2.5 -1.5 1.4 0 2.5 -0.4 2.5 -1 0 -0.5 0.9 -1 2 -1 1.3 0 2 -0.7 2 -2 0 -1.7 0.7 -2 4 -2 2.5 0 4 0.5 4 1.3 0 0.8 0.3 0.8 0.9 -0.2 0.7 -1.1 2.1 -1.2 6.3 -0.7 2.9 0.4 7 0.7 9.1 0.6 2.2 0 4.4 0.3 5 0.8 2.2 1.7 10 2.4 10.8 1 0.6 -0.9 3.3 -1.3 8.9 -1.1 4.6 0.1 8 -0.3 8 -0.8 0 -0.6 2.6 -0.9 5.8 -0.8 3.8 0.1 7 -0.4 9.2 -1.4 1.8 -1 4.4 -1.7 5.7 -1.7 1.2 0 2.3 -0.4 2.3 -0.9 0 -0.5 3.4 -1.2 7.5 -1.6 4.1 -0.4 7.5 -1.1 7.5 -1.6 0 -0.5 1.8 -0.9 4 -0.9 2.9 0 4 -0.4 4 -1.5 0 -1.1 1.1 -1.5 4 -1.5 2.9 0 4 0.4 4 1.5 0 0.9 0.9 1.5 2.5 1.5 1.8 0 2.5 -0.5 2.5 -1.9 0 -1.6 1.1 -2 7.7 -2.6 4.9 -0.4 7.9 -0.3 8.1 0.3 0.6 2 4.2 0 4.2 -2.4 0 -2 0.5 -2.4 2.9 -2.4 1.6 0 4.2 0.7 5.7 1.5 2.6 1.3 2.9 1.3 3.2 0 0.5 -2 7.2 -2.1 7.2 -0.1 0 0.8 1.5 1.7 3.5 2 2.8 0.6 4.1 0.2 6.2 -1.3 2.7 -2.2 11.3 -3 11.3 -1.1 0 0.6 0.7 1 1.5 1 0.8 0 2.4 0.5 3.4 1.1 2.3 1.5 6.7 0.4 8.9 -2.1 0.9 -1.1 2.9 -2 4.4 -2 1.5 0 3 -0.5 3.3 -1 1.1 -1.7 7.3 -1.2 8.4 0.7 0.9 1.6 1 1.6 1.1 -0.4 0 -2 0.5 -2.3 4.3 -2.3 4.9 0 6.3 -0.8 6.8 -3.5 0.3 -1.3 1.3 -2.1 3 -2.3 1.6 -0.2 3.1 -1.2 3.7 -2.8 0.9 -1.8 1.9 -2.4 4.2 -2.4 2 0 3 -0.5 3 -1.5 0 -1 1 -1.5 2.8 -1.5 4.7 0 14.2 -5.5 14.2 -8.2 0 -1.6 1 -1.8 7.5 -1.8 4.1 0 7.5 0.4 7.5 0.8 0 0.5 0.9 1.9 2 3.2 1.5 1.7 2.6 2.1 5.2 1.7 6.5 -1 12.3 -2.8 13.3 -4.1 0.6 -0.7 2.2 -1.6 3.8 -2 1.9 -0.4 2.7 -1.3 2.7 -2.9 0 -3.2 1.1 -4.4 4.6 -5.1 2.2 -0.5 3.7 -1.8 5 -4.1 1.3 -2.5 2.7 -3.7 5.1 -4.1 1.7 -0.3 3.4 -1.2 3.7 -2 0.6 -1.6 9.1 -2 10.1 -0.5 0.3 0.6 -2.2 7.6 -5.6 15.8 -3.3 8.1 -9.1 22.5 -12.9 31.8 -3.8 9.4 -8.8 21.5 -11.3 27 -2.4 5.5 -6.3 15 -8.7 21.2 -3.8 9.6 -4.6 11 -6.1 10.3 -1.3 -0.7 -1.8 -0.5 -2.3 1.2 -0.3 1.2 0 2.5 0.6 2.9 0.8 0.5 0.4 2.5 -1.2 6.9 -1.9 5 -2.6 6 -4.3 5.8 -1.4 -0.2 -3.4 1.1 -6.2 4.1 -2.2 2.4 -5 5.5 -6.2 6.8 -1.3 1.3 -2.3 2.7 -2.3 3.2 0 1.2 -4.9 5.1 -6.5 5.1 -0.8 0 -1.5 0.5 -1.5 1 0 0.6 -0.6 1 -1.4 1 -0.7 0 -1.6 0.9 -1.9 2 -0.4 1.4 -1.4 2 -3.5 2 -2.1 0 -3.8 0.9 -5.5 3 -2.8 3.2 -4.3 3.8 -5 1.8 -0.2 -0.7 -0.8 -0.9 -1.3 -0.5 -0.5 0.4 -0.3 1.2 0.4 1.6 0.7 0.4 1 1.5 0.6 2.4 -0.8 2.2 -2.4 1.2 -2.4 -1.4 0 -1.1 -0.4 -1.7 -1 -1.4 -0.5 0.3 -1 0 -1 -0.7 0 -1 -0.3 -0.9 -0.9 0.2 -0.6 0.8 -0.7 1.8 -0.5 2.2 0.3 0.4 0 0.8 -0.5 0.8 -0.6 0 -2.1 1.1 -3.2 2.4 -1.2 1.4 -2.7 2.2 -3.5 1.9 -0.7 -0.3 -2.7 0.5 -4.3 1.6 -3.5 2.6 -5.1 1.1 -2 -1.8 1.9 -1.8 2 -2.1 0.6 -2.7 -1.7 -0.6 -4.7 1.6 -4.7 3.5 0 1.4 -1.7 1.4 -2.5 0.1 -0.3 -0.5 0.4 -1.9 1.5 -3 1.7 -1.7 1.9 -2.4 0.9 -3.6 -1.6 -2 -3.1 -1.8 -2.5 0.4 0.7 2.3 -0.3 3.6 -4.1 5.3 -3.2 1.3 -4.4 2.9 -2.3 2.9 0.5 0 0.6 0.8 0.3 1.7 -0.6 1.4 -0.8 1.4 -1.6 -0.5 -1.4 -3 -3.3 -2.2 -2.9 1.2 0.2 1.7 0 2.6 -0.6 2.2 -0.6 -0.3 -1.6 0 -2.4 0.7 -2.2 2.2 -4.6 2.7 -5.2 1.1 -0.9 -2.3 -0.8 -2.4 1.8 -2.4 3.3 0 4.1 -1.5 1.8 -3.7 -2.4 -2.3 -4.3 -2.7 -3.6 -0.8 0.4 0.8 1 1.5 1.5 1.5 0.5 0 0.9 0.5 0.9 1 0 0.6 -1.5 0.8 -4 0.4 -3.4 -0.6 -4 -0.4 -4 1.1 0 1 0.3 1.5 0.7 1.2 0.9 -1 4.3 2.3 4.3 4.2 0 1 -0.3 1.2 -0.8 0.5 -1.3 -2 -5.7 -2.4 -8 -0.8 -2.1 1.5 -2.2 1.4 -2.2 -1.5 0 -3.8 -1.5 -4.8 -3.2 -2.1 -0.7 1.1 -2.1 2 -3 2 -1 0 -1.8 0.6 -1.8 1.4 0 2.5 -1.8 2.7 -3.8 0.6 l-1.9 -2.1 -3.6 2 c-2.7 1.5 -3.6 1.7 -4 0.7 -0.3 -0.8 0 -1.9 0.6 -2.5 0.8 -0.8 0.7 -1.1 -0.4 -1.1 -0.8 0 -1.9 -0.8 -2.6 -1.9 -1.5 -2.3 -6.3 -3.7 -7.4 -2 -0.5 0.9 -1.7 0.8 -4.9 -0.5 -4.8 -1.9 -6 -1.5 -4.2 1.4 1.5 2.4 0.9 2.5 -2.3 0.4 -2.2 -1.4 -2.3 -1.4 -1.8 0.4 0.2 1.1 1.6 2.5 2.9 3.1 3.2 1.4 2.1 3.3 -1.3 2.5 -1.5 -0.4 -2.8 -0.2 -3.3 0.5 -1 1.7 -8 0.3 -8 -1.5 0 -0.8 0.9 -1.4 2 -1.4 1.1 0 2 0.5 2 1.1 0 0.6 0.8 0.9 1.8 0.7 0.9 -0.2 1.7 -1 1.7 -1.7 0 -1.8 -5.5 -3.8 -6.4 -2.3 -0.3 0.6 -2.3 1.3 -4.4 1.7 -2.8 0.5 -3.7 0.4 -3.8 -0.6 0 -0.8 -0.5 -0.3 -1 1 -0.7 1.7 -1.5 2.2 -3.3 1.9 -1.9 -0.4 -2.2 -0.1 -1.8 1.5 0.3 1 -0.1 2.3 -0.9 2.8 -2 1.3 -2.9 1.1 -2.9 -0.6 0 -0.7 -0.8 -1.8 -1.7 -2.4 -1.4 -0.8 -1.5 -1.2 -0.4 -2.5 0.7 -0.9 2 -1.6 2.7 -1.6 0.8 0 1.4 -0.7 1.4 -1.6 0 -1.3 -0.6 -1.5 -2.7 -0.9 -3.4 0.8 -7.2 5.5 -4.4 5.5 0.5 0 1.2 1.1 1.5 2.5 0.4 1.4 1.1 2.5 1.6 2.5 0.6 0 1 0.5 1 1 0 0.6 -1.3 0.9 -3 0.8 -2.6 -0.2 -3 -0.6 -3 -3.2 0 -1.6 -0.3 -2.6 -0.7 -2.3 -1.1 1.2 -3.1 -1.3 -2.6 -3.2 0.6 -2.4 -1.1 -3.5 -2.6 -1.7 -0.8 1 -0.9 1.6 -0.1 2.1 1.3 0.8 1.3 3.5 0 3.5 -0.5 0 -1 -0.9 -1 -1.9 0 -2.3 -1.5 -3.5 -3.1 -2.6 -0.7 0.5 -0.4 1.4 0.7 2.6 0.9 1 1.4 1.9 1 1.9 -0.4 0 -0.3 0.8 0.3 1.8 0.6 1.1 0.5 2.1 -0.4 2.9 -0.9 0.8 -1.5 0.9 -1.7 0.2 -0.2 -0.6 -1.3 -0.5 -3 0.4 -2 1 -2.4 1.7 -1.6 2.5 0.8 0.8 1.5 0.7 2.4 -0.6 1.5 -1.9 1.9 -0.5 0.4 1.8 -0.8 1.3 -1.3 1.3 -3.9 -0.3 -1.7 -1 -3.3 -1.8 -3.6 -1.7 -2.7 0.2 -3.4 -0.2 -2.8 -1.6 0.3 -0.8 1.1 -1.3 1.7 -1.1 1.4 0.6 4.2 -1.4 4.1 -2.8 -0.1 -2.2 -1.6 -3.2 -4.1 -2.7 -2.5 0.4 -2.6 0.3 -2 -2.6 0.4 -1.8 0.3 -3.3 -0.3 -3.7 -0.6 -0.3 -1.1 -0.1 -1.1 0.5 0 0.6 -1.1 1.5 -2.5 2.2 -1.9 0.9 -2.9 0.8 -5 -0.6 -2.1 -1.4 -2.6 -1.4 -3.1 -0.3 -0.3 0.8 -0.4 2 -0.2 2.8 0.2 0.9 -0.5 1.4 -1.9 1.3 -1.2 0 -2 0.3 -1.7 0.8 0.9 1.4 -2.5 2.1 -4.1 0.8 -1.8 -1.5 -3.6 -0.4 -2.8 1.6 0.5 1.4 0.3 1.5 -1.6 0.5 -1.6 -0.9 -1.9 -1.6 -1.2 -2.9 0.8 -1.5 0.2 -3.8 -1.4 -6 -0.1 -0.1 -1 0.1 -2 0.4 -1.6 0.6 -1.5 0.9 0.6 2.5 l2.4 1.8 -2.3 2.1 c-1.8 1.7 -3.3 2.1 -6.8 1.8 -2.4 -0.2 -4.4 0.1 -4.4 0.5 0 0.5 -0.7 0.1 -1.6 -0.8 -1.5 -1.5 -1.8 -1.5 -3.6 0.4 -2.2 2.4 -2.8 2.5 -6.3 0.9 -2 -0.9 -3.1 -0.9 -4.5 -0.1 -1 0.7 -2.1 0.9 -2.4 0.6 -0.7 -0.8 -7.7 -3.3 -9 -3.3 -0.5 0 -0.3 0.7 0.4 1.5 1.3 1.5 0.8 1.9 -2.1 1.6 -1 -0.1 -2.3 1.2 -3.3 3.3 -1.7 3.6 -5.6 6.2 -5.6 3.7 0 -0.5 1 -1.1 2.2 -1.4 1.8 -0.5 1.9 -0.8 0.8 -2.1 -1.9 -2.4 -4.6 -1.9 -7 1.1 -1.9 2.5 -2.3 2.6 -3.1 1.1 -0.5 -1 -1.6 -1.5 -2.3 -1.2 -0.8 0.3 -1.7 0.1 -2.1 -0.5 -1 -1.8 -2.5 -1.2 -2.5 0.9 0 2.1 -3.3 2.9 -4.5 1 -0.3 -0.5 -0.1 -1 0.4 -1 0.6 0 1.1 -0.7 1.1 -1.6 0 -2.2 -5.4 -1.5 -5.8 0.9 -0.2 1 0.3 1.7 1.2 1.7 1.8 0 2.1 1.5 0.6 2.5 -0.5 0.3 -1 0.1 -1 -0.6 0 -0.7 -1 -0.9 -2.6 -0.6 -1.6 0.3 -2.8 0 -3.1 -1 -0.3 -0.8 -1.3 -1.1 -2.3 -0.8 -1 0.3 -2.1 0.1 -2.5 -0.5 -1.2 -1.9 -2.5 0.1 -1.9 2.7 0.6 2.4 0.5 2.5 -2.1 1.9 -1.9 -0.5 -3.1 -0.3 -3.6 0.6 -0.4 0.7 -1.1 1 -1.4 0.7 -0.8 -0.8 1.6 -5.9 2.7 -5.9 0.5 0 0.6 -0.4 0.3 -1 -0.3 -0.5 0.3 -1 1.4 -1 2.3 0 3.7 -1.6 1.9 -2.2 -2.3 -0.8 -5.9 1.7 -6.5 4.5 -0.5 2.7 -1.7 3.5 -2.7 1.8 -0.8 -1.2 -5.6 -2 -5.6 -1 0 0.5 -0.5 0.9 -1.1 0.9 -0.7 0 -1.7 0.8 -2.4 1.7 -1.1 1.4 -1.6 1.5 -4.4 0.3 -1.7 -0.7 -3.4 -1 -3.8 -0.7 -0.3 0.4 0.2 0.9 1.1 1.3 2.2 0.8 2 2.4 -0.3 2.4 -1 0 -2.9 1.1 -4.2 2.5 -1.3 1.3 -2.9 2.5 -3.6 2.5 -1.1 0 -2.9 3.7 -2.5 5.3 0.1 0.4 -0.6 0.7 -1.7 0.7 -1 0 -2.4 0.7 -3.1 1.5 -0.7 0.8 -1.9 1.5 -2.6 1.5 -0.8 0 -1.4 0.4 -1.4 0.9 0 1.3 -13.1 9.4 -15.9 9.8 -3.3 0.5 -5.1 2.6 -4.4 5.2 0.3 1.1 0.1 2.1 -0.3 2.2 -4.4 0.3 -6.9 1 -7.2 1.9 -0.2 0.5 -1 1 -1.7 1 -0.7 0 -1.5 0.9 -1.8 2 -0.5 2 -2.7 2.8 -2.7 1 0 -2 -2.6 -0.9 -2.7 1.2 -0.1 1.2 -0.9 2.8 -1.8 3.7 -1.3 1.3 -1.7 1.4 -2.4 0.2 -1.5 -2.3 -5.2 0.5 -4.9 3.7 0.3 2.5 0.1 2.7 -4 2.8 -2.3 0 -4.5 -0.3 -4.8 -0.8 -1 -1.6 -2.4 0.3 -2.4 3.4 0 2.1 -0.6 3.1 -1.9 3.5 -1.1 0.3 -2.2 1.5 -2.5 2.6 -0.6 2.1 -0.7 2.1 -2 0.5 -1.4 -1.9 -3.6 -2.4 -3.6 -0.8 0 1.2 -5.1 -1 -6.6 -2.8 -0.8 -1.2 -1.2 -1.1 -2.3 0.2 -1.5 1.8 -4.1 2.2 -4.1 0.6 0 -0.5 0.5 -1 1 -1 0.6 0 1 -1.1 1 -2.5 0 -2 -0.5 -2.5 -2.6 -2.5 -2.2 0 -2.5 0.4 -2 2 0.3 1.1 0.9 2.9 1.2 4 0.6 1.8 0.4 1.8 -2.7 0.8 -1.9 -0.6 -4 -1.2 -4.6 -1.4 -0.7 -0.2 -1 -1 -0.7 -1.9 0.4 -1 0 -1.5 -1.5 -1.5 -1.2 0 -2.1 0.5 -2.1 1 0 0.6 -1 1.1 -2.2 1.1 -1.8 0.1 -1.9 0.2 -0.5 0.6 0.9 0.2 1.5 0.8 1.2 1.3 -0.3 0.5 0.5 1.8 1.7 2.9 2.2 2.1 1.5 2.5 -2.4 1.4z m47.1 -13.2 c0.9 -0.6 1 -1.1 0.2 -1.5 -1.3 -0.8 -3.1 0.1 -3.1 1.5 0 1.1 1.1 1.1 2.9 0z m156.7 -63.4 c1.2 -1.2 -4.9 -2 -6.7 -0.9 -1.2 0.8 -2 0.8 -2.4 0.2 -0.3 -0.6 -1.5 -1 -2.7 -1 -1.7 0 -1.8 0.3 -0.8 1.5 0.8 1 2.8 1.3 6.6 1.1 3 -0.1 5.7 -0.5 6 -0.9z m13.9 0.3 c0.3 -0.5 -0.1 -1 -0.9 -1 -0.8 0 -1.8 0.5 -2.1 1 -0.3 0.6 0.1 1 0.9 1 0.8 0 1.8 -0.4 2.1 -1z m-9.1 -1.6 c1.3 -0.5 1.4 -0.9 0.5 -2 -0.9 -1.1 -1.5 -1.1 -2.5 -0.3 -2.7 2.2 -1.4 3.6 2 2.3z m53.6 -3.2 l0 -2.7 -1.4 2.5 c-1.3 2.6 -1.1 4.4 0.5 3.5 0.5 -0.4 0.9 -1.8 0.9 -3.3z m-47.3 -0.6 c-1 -2.6 -2.5 -1.8 -1.9 1 0.3 1.7 0.8 2.2 1.5 1.5 0.5 -0.5 0.7 -1.7 0.4 -2.5z m20.3 1.4 c0 -1.1 -0.4 -2 -0.9 -2 -1.3 0 -3.2 2.6 -2.4 3.3 1.3 1.4 3.3 0.6 3.3 -1.3z m-44.3 -0.3 c0 -0.9 -0.9 -1.2 -2.4 -0.9 -1.2 0.2 -2.3 0.8 -2.3 1.3 0 0.5 1.1 0.9 2.3 0.9 1.3 0 2.4 -0.6 2.4 -1.3z m151.3 -2.9 c0 -0.4 -0.5 -1 -1.1 -1.4 -1.2 -0.7 -2.9 1.2 -2.9 3.4 0 1 0.4 1 2 0 1.1 -0.7 2 -1.6 2 -2z m7 -1.4 c0 -1.6 -1.6 -1.9 -2.5 -0.4 -0.8 1.3 0.4 3.2 1.6 2.5 0.5 -0.4 0.9 -1.3 0.9 -2.1z m6 -0.5 c0 -0.6 0.9 -0.8 2 -0.4 1.5 0.5 2 0.2 2 -1.1 0 -1.3 -0.6 -1.5 -3.2 -1 -3.7 0.7 -4.2 1.1 -3.3 2.5 0.8 1.4 2.5 1.4 2.5 0z"/>
  <path d="M1295.5 688.4 c-0.5 -0.2 -8.2 -1 -17 -1.9 -22.2 -2.1 -21.5 -1.9 -21.5 -6.1 0 -3.2 0.2 -3.4 3.4 -3.4 1.8 0 3.9 -0.7 4.6 -1.5 0.7 -0.8 2.2 -1.5 3.4 -1.5 2.9 0 4.6 -1.8 4.6 -5.1 0 -1.5 0.7 -3.2 1.5 -3.9 1 -0.8 1.5 -3 1.5 -6.1 0 -3.7 -0.4 -4.9 -1.5 -4.9 -0.9 0 -1.5 -0.9 -1.5 -2.2 0 -1.3 -0.3 -3.3 -0.6 -4.4 -0.5 -2 0.6 -2.5 13.7 -6.8 11.5 -3.7 14.6 -4.4 15.6 -3.4 2.6 2.7 13.1 20.3 12.2 20.6 -0.5 0.2 -0.9 1.5 -0.9 2.8 0 2.4 -1.4 3.2 -2.5 1.4 -0.3 -0.5 -1.2 -1 -1.8 -1 -0.8 0.1 -0.7 0.5 0.3 1.3 1.7 1.4 2.4 3.7 1.1 3.7 -0.5 0 -0.7 0.8 -0.4 1.9 0.3 1.3 -0.2 2 -2 2.5 -1.9 0.4 -2.4 1.1 -2 2.6 0.4 1.4 0 2 -1.1 2 -0.9 0 -1.6 0.4 -1.6 0.9 0 0.6 -1.1 2.2 -2.5 3.7 -1.3 1.4 -2.2 3 -1.9 3.5 0.7 1.2 -1.9 5.7 -3.1 5.3z"/>
  <path d="M460 652.5 c0 -0.8 0.9 -1.5 2 -1.5 1.1 0 2 0.2 2 0.5 0 0.2 -0.9 0.9 -2 1.5 -1.6 0.9 -2 0.8 -2 -0.5z"/>
  <path d="M478.2 650.9 c-1.8 -2.9 -0.8 -3.5 1.7 -1 2.4 2.4 2.6 3.1 0.8 3.1 -0.7 0 -1.8 -0.9 -2.5 -2.1z"/>
  <path d="M441 651 c-0.8 -0.5 -0.4 -0.9 1.1 -1.3 1.3 -0.4 2.7 -0.3 3.2 0.2 1.1 1.1 -2.7 2.1 -4.3 1.1z"/>
  <path d="M486.3 649 c1.6 -0.5 3.4 -1.4 4.2 -2 1.1 -0.9 1.2 -0.7 0.8 0.9 -0.4 1.7 -1.3 2.1 -4.2 2 -3.5 -0.1 -3.5 -0.1 -0.8 -0.9z"/>
  <path d="M523.5 648 c0.3 -0.5 1.3 -1 2.1 -1 0.8 0 1.4 0.5 1.4 1 0 0.6 -0.9 1 -2.1 1 -1.1 0 -1.7 -0.4 -1.4 -1z"/>
  <path d="M501.3 646.3 c-2 -0.8 -1.5 -2.3 0.7 -2.3 1.1 0 2 0.7 2 1.5 0 1.5 -0.6 1.7 -2.7 0.8z"/>
  <path d="M494.7 642 c0.8 -1.7 1.9 -2.8 2.4 -2.5 1.5 1 1 3.5 -0.6 3.5 -0.8 0 -1.5 0.5 -1.5 1 0 0.6 -0.4 1 -0.9 1 -0.5 0 -0.3 -1.4 0.6 -3z"/>
  <path d="M571.3 640.6 c-1.2 -0.6 -2.4 -1.8 -2.6 -2.8 -0.4 -1.5 -0.2 -1.6 1.4 -0.7 1.1 0.5 2.3 0.8 2.8 0.5 0.5 -0.3 1.1 0.3 1.4 1.4 0.6 2.5 -0.2 2.9 -3 1.6z"/>
  <path d="M577.8 638.8 c-3.3 -1.2 -3.6 -2.4 -0.7 -3.3 1.4 -0.5 2.5 -0.2 3 0.6 0.8 1.3 1.3 4 0.7 3.8 -0.2 0 -1.5 -0.5 -3 -1.1z"/>
  <path d="M633.2 633.2 c-1.3 -0.9 -0.7 -4.2 0.7 -4.2 0.4 0 1.3 1.1 1.9 2.5 1.2 2.7 0.1 3.4 -2.6 1.7z"/>
 </g>
 <g fill="#2665ad">
  <path d="M1262.8 682.8 c-0.4 -2.8 -2.8 -3.6 -2.8 -0.9 0 1.6 -0.6 2.1 -2.7 2 -4 0 -18.2 -2.4 -18.9 -3.1 -0.3 -0.4 -0.3 -2 0.1 -3.6 0.4 -2.2 1.5 -3.3 4.6 -4.5 2.2 -0.9 3.9 -2.2 3.9 -3.1 0 -0.9 0.8 -1.6 2 -1.6 1.1 0 2 -0.5 2 -1.1 0 -0.6 1.4 -3.2 3.2 -5.8 1.7 -2.5 3.4 -5.9 3.7 -7.6 0.6 -2.6 1.6 -3.3 8.8 -6.1 7 -2.8 8.4 -3 10 -1.9 1.4 1.1 1.6 1.6 0.6 2.6 -1.4 1.4 -1.7 3 -0.5 2.8 2.4 -0.4 3.3 0.3 3.1 2.4 -0.2 1.2 -0.1 2.7 0.3 3.2 0.7 1.1 -1.2 9.2 -2.7 11.5 -0.5 0.8 -1.1 2.6 -1.3 4 -0.4 3.3 -2 5 -4.6 5 -2.6 0 -6.6 3.9 -6.6 6.3 0 2.5 -1.8 2.1 -2.2 -0.5z"/>
  <path d="M284.1 603.6 c-0.1 -1.8 -2.7 -4.5 -4.3 -4.6 -0.5 0 -0.8 0.7 -0.8 1.5 0 0.8 -0.4 1.5 -0.9 1.5 -0.5 0 -1.1 -0.7 -1.5 -1.5 -0.3 -0.8 -1.3 -1.5 -2.1 -1.5 -1.2 0 -1.5 -0.6 -1 -2.1 0.7 -2.1 0.5 -2.2 -4.1 -1.6 -3.4 0.3 -5.2 0.1 -6.2 -0.9 -0.8 -0.8 -1.9 -1.3 -2.5 -1.1 -2.1 0.7 -1.7 2.4 0.8 3.7 1.4 0.7 2.5 1.7 2.5 2.1 0 1.2 -2.8 0.4 -4.7 -1.4 -1.2 -1 -2.3 -1.3 -3.2 -0.7 -2.1 1.2 -3.8 0.2 -4.5 -2.6 -0.4 -1.3 -1.3 -2.4 -2.2 -2.4 -0.8 0 -1.3 0.4 -0.9 0.9 0.3 0.5 0.1 1.2 -0.4 1.5 -0.5 0.3 -1.2 -0.1 -1.5 -1 -0.4 -1.2 -1 -1.3 -1.9 -0.6 -0.6 0.6 -2.4 0.8 -3.8 0.5 -2 -0.4 -2.5 -0.9 -2.2 -2.4 0.4 -1.4 0 -1.9 -1.5 -1.9 -1.1 0 -2.3 0.6 -2.5 1.3 -0.4 0.9 -0.6 0.9 -0.6 -0.1 -0.1 -0.7 -0.5 -1.1 -1 -0.8 -0.4 0.3 -1.8 -0.6 -3.1 -1.9 l-2.3 -2.4 3.2 -24.8 c2.8 -22.8 6.1 -51.2 6.1 -53.4 0 -0.5 1.5 -0.9 3.3 -0.9 5.4 0 10.7 1.2 10.7 2.4 0 1.2 4.5 3.6 6.7 3.6 0.7 0 1.3 0.6 1.3 1.4 0 1.6 4.3 2.6 11.1 2.6 4.7 0 4.9 0.1 4.9 2.9 0 3.9 3.2 5.9 8.8 5.3 2.8 -0.3 4.2 0 4.2 0.8 0 0.6 1 1 2.3 0.8 1.7 -0.2 2.3 -1.1 2.7 -3.8 0.5 -3.2 0.8 -3.5 4.3 -3.8 3.7 -0.3 3.7 -0.3 3.8 3.5 0 3.3 0.2 3.5 0.9 1.6 0.7 -1.8 1.7 -2.3 4.5 -2.3 2.4 0 3.5 -0.4 3.5 -1.5 0 -1 1.1 -1.5 3.5 -1.5 1.9 0 3.5 0.5 3.5 1 0 2 1.9 0.9 2.2 -1.2 0.2 -1.9 1 -2.4 4.1 -2.6 2.8 -0.2 3.7 0 3.7 1.2 0 0.9 0.5 1.6 1 1.6 0.6 0 1 0.9 1 2.1 0 1.5 0.5 1.9 1.8 1.5 0.9 -0.3 2.9 -0.8 4.4 -1.1 2 -0.5 2.8 -1.4 3 -3.3 0.3 -2.3 0.8 -2.7 4.1 -3 3.1 -0.3 3.9 0 4.6 2 l0.8 2.3 0.7 -2.3 c0.4 -1.2 1.4 -2.2 2.2 -2.2 0.8 0 1.4 -0.7 1.4 -1.5 0 -1 1 -1.5 3 -1.5 2.3 0 3 -0.4 3 -2 0 -1.1 0.7 -2 1.5 -2 1 0 1.5 -1 1.5 -3 0 -1.6 0.5 -3 1 -3 0.6 0 1 -1.1 1 -2.5 0 -1.8 0.5 -2.5 2 -2.5 1.3 0 2 -0.7 2 -2 0 -1.5 0.7 -2 2.5 -2 1.4 0 2.5 -0.4 2.5 -1 0 -0.5 -0.4 -1 -1 -1 -1.5 0 -1.2 -7 0.4 -8.6 0.8 -0.8 3.2 -1.4 5.3 -1.4 l3.8 0 -0.3 8.5 -0.3 8.5 -3 0 c-2.7 0 -2.9 0.2 -1.5 1.5 0.8 0.8 2.3 1.5 3.3 1.5 1.1 0 3.9 2.1 6.3 4.7 13.2 13.7 33 11.5 41.3 -4.7 2.6 -5 2.8 -6.2 2.2 -12.5 -0.9 -10.8 -1 -11.3 -1.7 -10.9 -0.3 0.2 -1.6 -0.9 -2.8 -2.6 -1.8 -2.5 -1.9 -3 -0.6 -3 0.9 0 1.6 -0.9 1.6 -2 0 -1.6 0.7 -2 3.4 -2 1.9 0 4.1 0.6 4.8 1.3 1.8 1.7 10.8 1.7 10.8 0 0 -1 2.1 -1.3 7.9 -1.3 4.4 0 8.3 -0.4 8.6 -1 0.3 -0.6 1.9 -1 3.4 -1 1.6 0 3.4 -0.7 4.1 -1.5 0.9 -1.1 3.3 -1.5 8.4 -1.5 l7.1 0 0 6.4 c0.1 5.3 0.6 7.1 3.4 11.7 5.5 9.1 14 13.6 23.8 12.6 11.4 -1.2 18.7 -7.4 22 -18.6 1.6 -5.7 1.5 -6.6 -1.4 -18 l-0.6 -2.4 7.2 0.7 c5.9 0.6 7.1 0.5 7.1 -0.8 0 -1.1 1.7 -1.4 8.5 -1.5 4.7 0 8.5 0.4 8.5 1 0 0.5 1.4 0.9 3 0.9 1.7 0 3 -0.5 3 -1 0 -0.6 1.5 -2.7 3.4 -4.5 3.3 -3.5 8.7 -4.8 10.1 -2.5 0.3 0.5 1.5 1 2.5 1 1.4 0 2.1 1 2.5 3.8 1.3 7.3 2.8 10.6 7.1 14.8 10.2 10.2 27.2 9.4 36.7 -1.7 6.2 -7.1 8.2 -16.4 5.2 -23.5 -1.3 -3.1 -1.3 -3.8 -0.1 -5 3.3 -3.3 12 -0.5 12.8 4.1 0.2 1.2 1.3 2.1 2.6 2.3 1.2 0.2 2.2 0.8 2.2 1.3 0 0.5 0.9 0.9 2 0.9 1.1 0 2 0.4 2 1 0 0.6 1.8 0.7 4.4 0.4 2.4 -0.4 5.1 -0.2 6.1 0.3 1.8 1 6.8 -0.7 8 -2.8 0.4 -0.5 1.9 -0.9 3.6 -0.9 1.6 0 2.9 -0.4 2.9 -1 0 -0.5 0.7 -1 1.5 -1 0.8 0 1.5 -0.9 1.5 -2 0 -1.6 0.7 -2 3.1 -2 2.2 0 3.2 -0.6 3.6 -1.9 0.4 -1.5 1.7 -1.9 6.8 -2.3 4.5 -0.4 7.3 -1.3 10.1 -3.2 3.9 -2.7 11.6 -3.7 12.9 -1.7 0.3 0.6 2.8 0.7 5.5 0.4 4.6 -0.5 5 -0.4 5 1.5 0 1.7 0.8 2.1 4.6 2.4 3.7 0.3 4.9 -0.1 5.8 -1.4 0.6 -1 1.7 -1.8 2.4 -1.8 0.7 0 1.8 -0.5 2.5 -1 4.1 -3.5 5.3 -4.7 6.3 -6.5 0.6 -1.1 2.2 -2.1 3.5 -2.3 1.3 -0.1 4.1 -1 6.1 -1.9 2.9 -1.2 4.9 -1.4 8.6 -0.7 l4.9 0.9 -6.7 16 c-3.7 8.8 -8.7 21.2 -11.2 27.5 -4.5 11.3 -4.6 11.5 -7.7 11.5 -1.7 0 -3.5 0.5 -3.9 1.1 -0.4 0.6 -2.1 1.4 -3.7 1.8 -2.1 0.5 -3.7 1.8 -4.9 4.1 -1.4 2.6 -2.8 3.6 -5.2 4.1 -1.9 0.3 -3.4 0.9 -3.5 1.3 0 0.3 -0.2 1.7 -0.3 2.9 -0.3 2.6 -2.1 4.2 -4.9 4.2 -1 0 -1.6 0.4 -1.3 0.9 0.3 0.5 -0.9 1.4 -2.7 2 -2 0.8 -2.8 1.4 -2 1.9 0.8 0.5 0.9 1.2 0.2 2.2 -0.8 1.3 -1 1.3 -1.9 0 -0.5 -0.8 -1.1 -1.9 -1.3 -2.3 -0.4 -1.2 -5.5 1.3 -6.1 2.9 -0.4 1 0.3 1.4 2.1 1.4 3.2 0 2.1 1.5 -1.8 2.5 -2.3 0.6 -2.7 0.3 -3.4 -2.7 -0.5 -2.2 -0.9 -2.7 -1.2 -1.5 -0.7 2.6 -4.1 2 -5.7 -1 -0.8 -1.6 -1.8 -2.7 -2.3 -2.5 -0.4 0.1 -0.9 -0.2 -0.9 -0.8 -0.1 -0.5 -0.2 -1.4 -0.3 -2 -0.2 -1.6 -2.1 -1.2 -2.1 0.4 0 2.6 -2.1 2.9 -4.6 0.5 -1.9 -1.8 -2.4 -1.9 -2.4 -0.6 0 0.9 0.8 2 1.7 2.6 1 0.5 1.4 1.3 1 1.7 -0.4 0.5 -1.6 0.3 -2.7 -0.4 -1.1 -0.6 -2.2 -0.8 -2.5 -0.3 -1 1.7 -10 5.5 -12.2 5.2 -2.3 -0.2 -3.1 1.3 -1.3 2.4 1.8 1.1 1.1 3.2 -1.5 4.3 -3.5 1.6 -3.7 1.5 -2.5 -0.7 1.5 -2.8 1.3 -3.3 -1.2 -2.9 -1.7 0.2 -2.7 1.5 -3.8 4.5 -1.6 4.8 -2.5 5.3 -3.3 2.2 -0.3 -1.2 -1 -1.8 -1.6 -1.4 -1.4 0.8 -1.4 3.5 0 3.5 0.5 0 0.8 0.4 0.4 1 -0.3 0.5 -1.2 0.7 -2 0.4 -0.8 -0.4 -1.8 0.1 -2.1 1 -0.7 1.8 -4.9 2.2 -5.9 0.6 -0.9 -1.4 -2.8 -1.2 -2.2 0.3 0.2 0.6 1 1.1 1.6 1 0.6 -0.2 1.1 0.2 1.1 0.7 0 1.2 -1.1 1.4 -6.2 1.1 -2.3 -0.2 -3.8 0.2 -3.8 0.8 0 1.3 -4.7 0.4 -6.8 -1.2 -1.3 -1 -2.7 -0.3 -2.7 1.4 0 0.5 -0.2 0.8 -0.5 0.7 -0.3 -0.1 -1.6 0.4 -2.9 1.1 -3.5 1.9 -10.8 2.2 -12.2 0.4 -1 -1.1 -1.4 -1.1 -2 -0.1 -0.4 0.7 -0.4 1.7 0.2 2.4 0.7 0.8 -0.2 1.1 -3.1 1.1 -4.4 0 -5.4 -1.9 -2 -3.7 1.1 -0.6 2 -1.5 2 -2 0 -2 -2.9 -0.9 -7 2.5 -4.1 3.4 -7 4.5 -7 2.6 0 -0.5 0.6 -1.1 1.3 -1.4 0.6 -0.2 -0.3 -0.6 -2.2 -0.9 -2.6 -0.4 -3.9 0.1 -5.8 1.8 -2 1.8 -2.9 2.1 -4.4 1.3 -1.1 -0.5 -1.9 -1.5 -1.9 -2.2 0 -0.7 -1.6 -2 -3.5 -2.9 -2.3 -1 -3.5 -1.2 -3.4 -0.4 0.3 2.5 -0.2 3.6 -1.6 3.6 -0.8 0 -1.5 0.7 -1.5 1.6 0 1.1 -0.5 1.4 -1.6 1 -0.9 -0.3 -1.9 -0.6 -2.4 -0.6 -0.5 0 -1.6 -0.7 -2.5 -1.6 -1.5 -1.5 -1.8 -1.5 -3.9 0.5 -2.1 2 -2.5 2.1 -3.9 0.7 -2.1 -2.1 -3 -2 -1.8 0.2 0.6 1.1 0.6 2.4 0 3.3 -0.5 0.7 -0.9 1 -0.9 0.4 0 -1.3 -8 -1.8 -8 -0.5 0 2.1 -2 0.9 -2.6 -1.5 -0.7 -2.8 -2.2 -3.4 -2 -0.7 0.1 1.4 -0.7 1.7 -4.2 1.5 -3.9 -0.2 -4.2 0 -3.7 1.9 0.6 1.7 0.4 1.9 -1.5 1.3 -1.6 -0.5 -2.6 -0.1 -3.6 1.4 -1.8 2.5 -3.4 2.7 -3.4 0.6 0 -0.8 0.7 -1.5 1.6 -1.5 0.8 0 1.2 -0.5 0.9 -1 -0.4 -0.6 -1.2 -0.7 -1.8 -0.3 -0.7 0.5 -2.6 0.8 -4.3 0.8 -2.3 -0.1 -3 0.3 -2.6 1.3 0.4 1.1 -0.2 1.3 -2.5 0.8 -2.2 -0.5 -4.3 0 -7.9 1.9 -4.4 2.4 -5.3 2.5 -8.6 1.4 -3.2 -1 -3.8 -0.9 -5.9 1 -1.4 1.3 -2.5 1.7 -2.7 1.1 -0.2 -0.6 -1.1 -0.2 -1.9 0.9 -1.8 2.7 -3.6 2.7 -4.8 -0.1 -1.2 -2.6 -5.4 -2.8 -6.7 -0.4 -0.8 1.5 -6.6 1.5 -10 0.1 -0.9 -0.3 -3 0.1 -4.7 1 -1.7 0.8 -3.1 1.1 -3.1 0.6 0 -0.5 0.6 -1.1 1.3 -1.4 0.9 -0.3 0.9 -0.7 0 -1.7 -0.9 -0.9 -1.4 -0.8 -2.2 0.9 -1.3 2.4 -4.1 2.8 -4.1 0.7 0 -2.6 -2.7 -2.5 -4.1 0.2 -1.6 3.1 -3 4.3 -4.1 3.6 -1.4 -0.9 -0.9 -2.2 1.1 -2.9 1.3 -0.4 1.7 -1.2 1.4 -2.5 -0.7 -2.7 -1.5 -2.5 -3.8 1 -2.5 3.8 -4.1 3.8 -4.8 0 -1 -5 -3.1 -3.7 -2.4 1.5 0.4 2.5 0.3 4.5 -0.2 4.5 -0.6 0 -1.1 -1 -1.3 -2.2 -0.4 -2.8 -2.8 -3.6 -2.8 -0.9 0 2.4 -0.4 2.5 -3.1 1.1 -1.6 -0.9 -1.9 -0.7 -1.9 1.5 0 2.6 -1.5 3.4 -2.3 1.3 -0.3 -1 -1 -0.8 -2.5 0.5 -1.3 1.2 -2.8 1.6 -4.1 1.2 -1.3 -0.4 -2.7 0.1 -4 1.4 -2.5 2.5 -3 2.6 -4.8 0.4 -1.3 -1.7 -1.4 -1.7 -2.9 0.5 -1.9 2.6 -3.6 2.8 -5.4 0.7 -0.7 -0.8 -2.2 -1.5 -3.4 -1.5 -2 0 -2 0.1 0.3 1.9 2.3 1.8 2.1 4.9 -0.2 3.4 -0.7 -0.4 -2 -0.6 -3 -0.4 -1.5 0.2 -1.7 -0.2 -1.2 -1.8 0.5 -1.7 0.2 -2.1 -1.4 -2.1 -1.2 0 -2.1 -0.5 -2.1 -1.1 0 -0.5 -0.4 -0.7 -1 -0.4 -0.5 0.3 -1 1.5 -1 2.6 0 1 -0.5 1.9 -1.1 1.9 -0.6 0 -0.8 -0.7 -0.5 -1.6 0.5 -1.3 0.2 -1.5 -1.6 -1.1 -1.2 0.4 -2.8 0.1 -3.5 -0.5 -1 -0.8 -1.3 -0.6 -1.3 0.5 0 2 -3.6 4.1 -5.2 3.1 -0.7 -0.5 -0.9 0 -0.6 1.3 0.4 1.6 0.2 1.9 -1.3 1.6 -1.5 -0.4 -1.9 0 -1.9 2.1 0 1.5 -0.7 2.9 -1.5 3.2 -0.8 0.4 -1.5 1.2 -1.5 1.9 0 0.7 -0.9 1.5 -2 1.8 -1.3 0.3 -2 1.4 -2 2.9 0 3.1 -0.9 4.1 -2.6 2.7 -0.9 -0.8 -1.1 -0.2 -0.9 2.5 0.4 4.5 -1.4 6 -6.1 5.2 -3.3 -0.7 -3.5 -0.6 -2.9 1.4 0.8 2.4 -2.9 7 -5.6 7 -0.9 0 -2 0.7 -2.3 1.6 -0.4 1 -1.3 1.3 -2.5 0.9 -1 -0.3 -2.4 0.1 -3.1 1 -0.8 1 -0.9 1.5 -0.1 1.5 0.6 0 1.1 0.5 1.1 1 0 0.6 -1.1 1 -2.5 1 -1.4 0 -2.5 0.5 -2.5 1 0 0.6 -1.8 1 -3.9 1 -3.4 0 -3.8 -0.3 -3.4 -2 0.4 -1.4 0 -2 -1.1 -2 -1.4 0 -2.1 1.7 -1.7 4.2 0 0.3 -1.4 0.6 -3.2 0.6 -10.2 -0.1 -11.6 0.2 -11.9 2.2 -0.2 1.2 -0.7 1.9 -1.3 1.8 -0.5 -0.2 -0.9 -0.9 -0.7 -1.5 0.4 -1.9 -3.4 -1.6 -5.3 0.3 -1.7 1.8 -1.7 1.8 -3.3 -1.1 -1.1 -1.9 -1.1 -1.8 -1.2 0.8 0 2.9 -1.7 3.7 -2.6 1.2 -0.9 -2.2 -2.6 -1.8 -1.9 0.4 0.3 1.1 0.1 2.2 -0.4 2.5 -1.2 0.8 -5.1 -2.4 -5.1 -4.1 0 -0.7 -0.6 -1.3 -1.4 -1.3 -0.9 0 -1.3 0.7 -1.1 2 0.2 1.1 0 2 -0.5 2 -0.5 0 -1.1 0.8 -1.3 1.8 -0.4 1.5 -0.5 1.5 -0.6 -0.2z m-13.1 -12 c0 -0.2 -1.1 -0.6 -2.5 -0.8 -1.4 -0.3 -2.5 -0.1 -2.5 0.3 0 0.5 1.1 0.9 2.5 0.9 1.4 0 2.5 -0.2 2.5 -0.4z m72.9 -5.5 c0.9 -0.6 1 -1.1 0.2 -1.5 -1.3 -0.8 -3.1 0.1 -3.1 1.5 0 1.1 1.1 1.1 2.9 0z"/>
  <path d="M327.5 599 c-1.9 -0.7 -1.9 -0.7 0.3 -1.4 2.6 -0.9 4.1 -0.1 2.6 1.3 -0.5 0.5 -1.8 0.5 -2.9 0.1z"/>
  <path d="M519 537.2 c0 -1.2 2.3 -3.2 3.7 -3.2 2.2 0 1.5 1.6 -1.2 2.8 -1.4 0.6 -2.5 0.8 -2.5 0.4z"/>
  <path d="M540 532 c0 -0.5 0.7 -1 1.5 -1 0.8 0 1.5 0.5 1.5 1 0 0.6 -0.7 1 -1.5 1 -0.8 0 -1.5 -0.4 -1.5 -1z"/>
  <path d="M575.7 530.3 c-0.3 -0.5 0.7 -1.4 2.4 -2 2.3 -0.9 2.9 -0.9 2.9 0.3 0 0.8 -0.4 1.4 -0.9 1.4 -0.5 0 -1.6 0.3 -2.4 0.6 -0.8 0.3 -1.7 0.1 -2 -0.3z"/>
  <path d="M576.6 525.1 c-0.3 -0.5 0.1 -1.4 0.9 -2.1 1.2 -1 1.5 -1 1.5 0.3 0 1.9 -1.6 3.1 -2.4 1.8z"/>
  <path d="M378.2 478.1 c-0.8 -0.5 -1.2 -2.3 -1 -4.7 0.3 -3.9 0.3 -3.9 5.1 -4.2 4.8 -0.3 5.9 0.6 3.1 2.9 -0.8 0.7 -2.2 2.5 -3 4.1 -1.5 3 -2.1 3.3 -4.2 1.9z"/>
 </g>
 <g fill="#2970b7">
  <path d="M1238 680.3 c-5.5 -3.9 -12 -13.3 -12 -17.4 0 -2.4 0.7 -2.8 16.3 -7.4 8.9 -2.6 16.9 -5 17.8 -5.2 1.3 -0.4 1.6 0.3 1.3 3.7 -0.1 2.3 -1.1 5.3 -2 6.8 -1 1.5 -1.6 2.7 -1.3 2.7 0.2 0 -0.6 1.1 -1.8 2.5 -1.3 1.3 -2.3 3 -2.3 3.7 0 0.7 -0.9 1.3 -2 1.3 -1.2 0 -2 0.7 -2 1.6 0 0.9 -1.6 2.2 -3.8 3.1 -2.4 0.9 -4.2 2.4 -4.8 3.9 -0.9 2.4 -0.9 2.5 -3.4 0.7z"/>
  <path d="M265.7 529.1 c-0.8 -3.9 -0.6 -4.3 1 -3.3 0.8 0.5 1 1.8 0.4 3.7 l-0.7 3 -0.7 -3.4z"/>
  <path d="M270.7 529.8 c-0.4 -1.2 -0.4 -2.4 -0.1 -2.7 0.8 -0.9 3.7 2.7 3 3.8 -1.1 1.7 -2.3 1.3 -2.9 -1.1z"/>
  <path d="M280 529.1 c0 -0.5 -0.9 -0.7 -2 -0.4 -1.1 0.3 -2 0 -2 -0.6 0 -1.4 -5.3 -4.1 -8.3 -4.1 -2.8 0 -4.7 -1.7 -4 -3.6 0.3 -0.9 -0.2 -1.4 -1.6 -1.4 -2.8 0 -3.7 0.3 -3.4 1.3 0.2 0.4 -0.4 0.7 -1.2 0.7 -0.8 0 -1.4 -0.3 -1.4 -0.7 0.3 -2.1 -0.2 -5.3 -0.8 -5.1 -1.5 0.5 -7.3 -2.7 -7.3 -3.9 0 -2 -1.8 -1.5 -3 0.7 -0.6 1.1 -1.7 2 -2.5 2 -1.7 0 -2 -1.6 -0.5 -2.5 1.7 -1 1.1 -2.5 -0.9 -2.5 -1.1 0 -2.1 0.6 -2.4 1.3 -0.2 0.6 -0.8 0.9 -1.2 0.5 -1 -0.9 3.9 -45.2 5.4 -49.1 1 -2.6 1.5 -2.8 5.8 -2.6 6 0.2 20.6 -2.1 21.4 -3.4 0.4 -0.5 2.7 -0.8 5.3 -0.6 2.5 0.2 4.6 0.1 4.6 -0.3 0 -0.5 0.8 -0.8 1.8 -0.8 0.9 0 3 -0.7 4.6 -1.5 1.5 -0.8 3.7 -1.5 4.7 -1.5 1.1 0 2.2 -0.7 2.5 -1.5 0.4 -1 1.9 -1.5 4.3 -1.5 2.5 0 4.1 -0.6 5.1 -2 0.8 -1.1 2.4 -2 3.7 -2 1.2 0 2.5 -0.5 2.8 -1 0.3 -0.5 1.6 -1 2.8 -1 1.2 0 3.1 -0.7 4.1 -1.5 2.2 -1.7 8.6 -2 8.6 -0.5 0 0.6 0.7 1 1.5 1 0.8 0 1.5 0.5 1.5 1 0 1.9 3.2 1 3.7 -1 0.4 -1.5 1.4 -2 3.9 -2 2.5 0 3.4 -0.4 3.4 -1.6 0 -1.4 0.9 -1.6 7.3 -1 3.9 0.4 7.3 1.1 7.5 1.4 0.1 0.4 2.2 0.6 4.7 0.4 4.3 -0.4 4.5 -0.3 4.5 2.3 l0 2.6 3 -2.1 c1.7 -1.2 3 -2.7 3 -3.4 0 -1.8 4.4 -2.6 14.9 -2.8 4.7 0 7.1 -0.3 5.3 -0.5 -3.1 -0.4 -3.3 -0.6 -3 -4.1 0.3 -3.3 0.6 -3.7 4.1 -4.5 5.2 -1.2 10.8 -0.1 11.4 2.4 0.3 1 1.4 1.9 2.4 1.9 1.1 0 1.9 0.6 1.9 1.4 0 1.6 2.1 2.6 5.6 2.6 1.7 0 2.4 0.6 2.4 2 0 1.3 0.7 2 1.9 2 1.1 0 2.1 0.8 2.3 1.7 0.3 1.5 1 1.1 4.1 -1.9 2.9 -2.9 4.6 -3.8 7.2 -3.8 1.9 0 3.5 0.5 3.5 1 0 0.6 2 1 4.5 1 4.3 0 4.5 -0.1 4.5 -3 0 -2.8 0.3 -3 3.5 -3 2.9 0 3.5 0.4 3.5 2.1 0 1.7 0.4 2 2.3 1.5 1.2 -0.4 4.6 -0.9 7.5 -1.3 4.6 -0.5 5.2 -0.8 5.2 -2.9 0 -1.3 0.5 -2.4 1 -2.4 0.6 0 1 -1.3 1 -3 0 -2.8 0.3 -3 3.5 -3 3.3 0 3.5 -0.2 3.5 -3.5 0 -3.5 0 -3.5 4.5 -3.5 4.5 0 4.5 0 4.5 3.5 0 4.4 2.1 5 11.6 3.5 12.9 -2.1 14.4 -2.2 14.4 -1.3 0 1.2 7.7 3 17.9 4.2 6 0.8 7.7 0.7 8.8 -0.5 1.1 -1 4.1 -1.4 11.4 -1.4 9.6 0 10 -0.1 11.1 -2.5 0.8 -1.9 1.9 -2.5 4.3 -2.5 1.7 0 3.6 0.5 4.2 1.1 0.8 0.8 3.5 0.7 9.9 -0.5 9.9 -1.7 14.4 -3.4 14.4 -5.5 0 -1.1 1.1 -1.2 5 -0.8 3.1 0.4 5 0.2 5 -0.4 0 -0.6 3.1 -1 7.8 -0.9 4.2 0.1 9.7 -0.3 12.2 -0.9 6.9 -1.5 13 -1.4 13.6 0.4 0.5 1.1 2.3 1.5 7.8 1.5 4 0 7.6 0.4 8.1 0.9 1.1 1.1 7 1.2 18.8 0.4 5.1 -0.3 8.3 -0.1 9.2 0.7 1.5 1.2 8.9 -0.2 10 -2 0.3 -0.6 2.4 -1 4.5 -1 2.1 0 4.1 -0.4 4.4 -0.9 0.3 -0.5 3.5 -1.5 7.1 -2.2 3.6 -0.7 6.5 -1.6 6.5 -2.1 0 -1.3 7.5 -0.9 8.8 0.4 0.9 0.9 1.5 0.8 2.5 -0.7 1.2 -1.5 2.2 -1.7 6.1 -1.2 3.1 0.5 4.6 0.3 4.6 -0.5 0 -1.1 3.9 -0.8 13.3 0.8 3.1 0.6 3.7 0.4 3.7 -1.1 0 -1.4 0.7 -1.6 4 -1.3 2.6 0.2 4 -0.1 4 -0.8 0 -0.7 1.5 -1.5 3.4 -1.8 1.9 -0.4 3.7 -1.3 4 -2.1 0.3 -0.8 1.6 -1.5 2.9 -1.5 1.3 0 3.2 -0.9 4.2 -2 2.2 -2.4 10.8 -2.8 13.1 -0.6 1.5 1.5 1.3 2 -3.6 13.1 -0.9 2.2 -2.5 6.2 -3.5 8.8 -1.8 4.7 -1.9 4.8 -5.9 4.6 -2.3 -0.1 -5.5 0.5 -7.1 1.4 -1.7 0.8 -4 1.5 -5 1.4 -1.2 -0.1 -2.4 0.7 -3 2.1 -0.5 1.2 -1.3 2.2 -1.7 2.2 -0.5 0 -0.8 0.7 -0.8 1.5 0 0.8 -0.3 1.4 -0.7 1.4 -2.3 -0.4 -3.3 0.3 -3.3 2.1 0 1.1 -0.7 2 -1.6 2 -0.8 0 -1.2 -0.5 -0.9 -1 1.3 -2.1 -0.8 -0.9 -2.7 1.5 -2 2.6 -6.1 3.4 -7.3 1.4 -0.4 -0.6 -1.4 -0.7 -2.4 -0.4 -3.4 1.4 -6.6 1.2 -9.5 -0.6 -9 -5.3 -9.3 -5.4 -13.6 -2.5 -2.2 1.4 -4.6 2.6 -5.3 2.6 -0.8 0 -3.4 1.3 -5.8 2.9 -3 2.1 -4.7 2.7 -5.5 2 -0.9 -0.7 -2 0.1 -3.8 2.8 -1.4 2.1 -2.6 3.2 -2.6 2.5 0 -0.6 -0.9 -1.2 -2 -1.2 -1.4 0 -1.8 0.5 -1.3 1.7 0.5 1.4 0.1 1.5 -3 1 -2 -0.3 -3.9 -0.1 -4.3 0.4 -0.3 0.6 -1.7 1.4 -3 1.9 -1.3 0.5 -2.4 1.6 -2.4 2.5 0 0.8 -0.7 1.5 -1.5 1.5 -0.8 0 -1.5 -0.4 -1.5 -1 0 -0.5 -0.7 -1 -1.5 -1 -0.8 0 -1.5 0.7 -1.5 1.5 0 0.8 -0.4 1.5 -0.9 1.5 -0.5 0 -0.7 -0.9 -0.4 -2 0.3 -1.1 0 -2 -0.6 -2 -1.9 0 -2.6 0.5 -2.3 1.5 0.2 0.6 -0.2 0.4 -0.9 -0.2 -0.7 -0.7 -2 -1.3 -2.9 -1.3 -1.3 0 -1.3 0.1 0 1 1 0.6 1.2 1.2 0.5 1.9 -1.3 1.3 -5.5 -1.3 -5.5 -3.5 0 -0.8 -0.9 -1.4 -2 -1.4 -1.1 0 -2 -0.4 -2 -0.9 0 -0.5 -1 -1.1 -2.2 -1.3 -1.5 -0.2 -2.4 -1.1 -2.6 -2.5 -0.2 -1.2 -1.4 -2.9 -2.8 -3.8 -2.2 -1.4 -2.6 -1.4 -4 0 -2.2 2.2 -2.7 1.9 -4.9 -2.1 -2.4 -4.5 -8.6 -10.1 -13.9 -12.5 -6 -2.7 -11.3 -2.4 -18.5 1.2 -9 4.5 -14 12 -14.4 21.8 -0.2 3.9 -0.6 5 -2.4 5.8 -1.3 0.6 -2.3 0.7 -2.3 0.3 0 -0.5 0.6 -1 1.3 -1.3 0.6 -0.2 0.9 -0.8 0.4 -1.2 -0.4 -0.5 -1.3 -0.3 -1.9 0.3 -1 1 -1.6 0.8 -2.9 -1 l-1.7 -2.2 -2.1 3.5 c-1.1 1.9 -2.1 3 -2.1 2.4 0 -0.5 -0.5 -0.4 -1.2 0.3 -0.8 0.8 -0.8 1.5 0 2.4 0.8 1 0.1 1.2 -3.5 0.9 -2.5 -0.2 -5 0.2 -5.6 0.8 -1.8 1.8 -3.7 1.3 -3.7 -0.9 0 -1.1 -0.4 -2 -0.8 -2 -1.5 0 -4.4 3.8 -3.7 4.9 0.7 1.2 -0.5 1.4 -2.9 0.5 -0.8 -0.3 -1.3 -1.1 -1 -1.8 0.3 -0.7 -0.2 -1.9 -1.1 -2.6 -1.2 -1 -1.5 -1 -1.5 0.4 0 1.8 0 1.8 -5 2 -2.3 0.1 -4.5 1.2 -6.5 3 l-3 2.7 -0.6 -2.5 c-1.9 -6.9 -9.3 -14.8 -15.6 -16.5 -14.2 -4 -29.4 3.4 -33.2 15.9 -1.1 3.7 -1.5 4 -4.9 4.2 -2 0 -4.4 0.1 -5.3 0 -0.9 -0.1 -2.7 1 -3.9 2.3 -1.8 1.9 -2.6 2.2 -3.7 1.3 -1 -0.8 -1.8 -0.7 -3.2 0.6 -1.3 1.2 -2.7 1.5 -4.5 1 -1.5 -0.3 -3.2 -0.1 -4 0.5 -1 0.8 -2.1 0.8 -4 0.1 -3.5 -1.3 -3.5 -1.3 -2.9 0.8 0.4 1.7 -0.1 1.8 -4.4 1.3 -2.6 -0.3 -6.7 -0.5 -9 -0.3 -3.6 0.3 -4.4 0.7 -4.9 2.8 -0.3 1.3 -0.9 2.4 -1.3 2.4 -1.5 0 -2.9 -2.3 -2.4 -3.9 0.4 -0.9 0.3 -1.3 -0.2 -0.9 -0.4 0.4 -2.6 -0.8 -4.8 -2.8 -2.1 -2 -5.4 -4.2 -7.3 -5 -7.1 -3 -18.2 -1.1 -25.3 4.4 -2 1.4 -4.3 2.5 -5.3 2.4 -2.1 -0.4 -3.5 1.8 -1.8 2.8 1 0.6 1 1.5 0 4.4 -0.9 2.8 -1.7 3.6 -3.6 3.6 -1.3 0 -2.4 0.5 -2.4 1 0 0.6 0.5 1 1.1 1 0.6 0 0.9 0.8 0.6 1.9 -0.3 1.4 0 1.7 1.4 1.4 1.6 -0.5 1.9 0 1.9 3.1 0 4.1 2.2 10.1 4.7 12.8 1.5 1.7 1.5 1.8 -0.3 1.8 -1 0 -3.2 -0.7 -4.7 -1.5 -2.6 -1.3 -5.7 -1.1 -5.7 0.4 0 0.4 -1.6 1.5 -3.5 2.4 -3.9 1.9 -4.2 2.8 -1.9 5.2 1.5 1.5 1.5 1.7 -0.1 2.9 -1.1 0.8 -1.5 1.8 -1 2.6 0.4 0.7 0.4 1.1 -0.1 0.8 -0.5 -0.2 -2.2 -1 -3.9 -1.7 -1.6 -0.7 -3.8 -1.7 -4.7 -2.2 -1.3 -0.7 -1.8 -0.5 -1.8 0.6 0 0.8 0.9 1.9 2 2.5 1.1 0.6 1.8 1.5 1.5 2 -0.7 1.2 -4.8 0 -6.4 -1.9 -1 -1.2 -1.4 -1.3 -1.8 -0.3 -0.3 0.7 -1.2 1.9 -2 2.7 -0.8 0.9 -1.3 2.2 -1 3 0.3 0.7 -0.1 1.9 -1 2.7 -1.4 1.1 -1.6 1 -1.1 -0.9 0.7 -2.6 -0.8 -3.4 -4.1 -2.1 -1.4 0.5 -3 0.7 -3.8 0.4 -0.8 -0.3 -1.3 0.2 -1.3 1.4 0 2.5 -2.7 2.7 -3.2 0.3 -0.3 -1.5 -0.8 -1.4 -3 1 l-2.7 2.8 -1.1 -2.1 c-0.8 -1.4 -1.8 -2 -3 -1.7 -1.1 0.3 -2.1 0 -2.3 -0.6 -0.2 -0.6 -1.2 -0.2 -2.4 1 -2.5 2.5 -6.3 3.9 -6.3 2.4 0 -1.6 -2.1 -1.3 -4.2 0.6 -2.2 2 -3.6 0.9 -2 -1.7 0.7 -1.2 0.8 -2.1 0.2 -2.5 -1.3 -0.8 -3.2 0.4 -2.5 1.5 0.3 0.5 -0.9 1.6 -2.6 2.4 -2.4 1.2 -3.5 1.3 -4.5 0.5 -0.9 -0.8 -2.3 -0.8 -4.1 -0.2 -3.2 1.1 -8.5 0.6 -9.4 -0.8 -0.4 -0.7 -1.2 -0.4 -2.2 0.5 -1.8 1.8 -2.7 2 -2.7 0.7z m36.7 -4.6 c-0.4 -0.8 -1.1 -1.5 -1.7 -1.5 -0.7 0 -0.7 0.6 0 2.1 1.3 2.3 2.6 1.9 1.7 -0.6z m8.6 -3.2 c-0.7 -0.3 -1.3 -1.2 -1.3 -2.1 0 -1.3 -0.2 -1.4 -1.2 -0.3 -1 1.1 -1 1.4 0 1.8 0.6 0.3 1.2 1.2 1.2 2.1 0 1.3 0.2 1.4 1.3 0.3 1 -1.1 1 -1.4 0 -1.8z m40.7 -7.3 c0 -0.5 -0.4 -1 -1 -1 -0.5 0 -1 -0.7 -1 -1.5 0 -0.8 -0.7 -1.5 -1.5 -1.5 -1.9 0 -1.9 0.5 0.2 3 1.9 2.2 3.3 2.6 3.3 1z m-19.6 -69.5 c-0.4 -0.8 -1 -1.5 -1.5 -1.5 -0.5 0 -0.9 0.7 -0.9 1.5 0 0.8 0.7 1.5 1.5 1.5 0.9 0 1.2 -0.6 0.9 -1.5z"/>
  <path d="M235 523.5 c0 -1.4 0.2 -2.5 0.4 -2.5 0.2 0 0.6 1.1 0.8 2.5 0.3 1.4 0.1 2.5 -0.3 2.5 -0.5 0 -0.9 -1.1 -0.9 -2.5z"/>
  <path d="M351.7 523.4 c-1.3 -1.3 -0.7 -2.4 1.4 -2.4 1.1 0 1.9 0.5 1.7 1.2 -0.5 1.4 -2.2 2.1 -3.1 1.2z"/>
  <path d="M362.7 523.4 c-0.8 -0.8 0.1 -2.4 1.4 -2.4 0.5 0 0.9 0.7 0.9 1.5 0 1.5 -1.2 2 -2.3 0.9z"/>
  <path d="M607 473.8 c0 -0.4 1.5 -0.8 3.3 -0.8 1.7 0 4.3 -0.3 5.7 -0.7 2.2 -0.6 2.3 -0.5 1.2 0.9 -1.4 1.7 -10.2 2.2 -10.2 0.6z"/>
  <path d="M719.2 435.8 c-1.6 -1.6 -1.5 -3.8 0.2 -3.8 1.3 0 2.6 2 2.6 4.1 0 1.3 -1.4 1.1 -2.8 -0.3z"/>
 </g>
 <g fill="#287ac0">
  <path d="M1227.5 668 c-3.9 -6.4 -3.8 -7.3 0.7 -8.4 2.6 -0.6 2.7 -0.5 1.8 2 -1.2 3.2 -1.3 7.4 -0.1 7.4 0.9 0 2.3 4.1 1.7 4.8 -0.2 0.2 -2.1 -2.4 -4.1 -5.8z"/>
  <path d="M241 471.6 c0 -1.1 4.1 -35.5 4.6 -38.8 0.4 -2.9 1 -3.8 2.5 -3.8 1.4 0 1.9 0.7 1.9 2.5 0 1.7 0.5 2.5 1.8 2.5 2.5 0 10.2 3.8 10.2 5 0 2.4 11.9 -0.1 14 -3 0.3 -0.4 2.1 -1 4.2 -1.4 2 -0.4 3.9 -1.3 4.2 -2.1 0.3 -0.9 1.8 -1.5 3.4 -1.5 1.6 0 3.5 -0.7 4.2 -1.5 0.7 -0.8 2.5 -1.5 4.1 -1.5 1.5 0 3 -0.4 3.3 -0.9 0.3 -0.4 3.4 -1.1 6.9 -1.3 3.5 -0.3 7.5 -1.2 8.8 -2.1 1.3 -0.8 5.3 -1.8 8.8 -2.2 3.6 -0.3 7.6 -1.2 9 -1.9 1.4 -0.8 5.5 -1.6 9.1 -1.9 3.6 -0.3 10.3 -1.3 15 -2.3 4.7 -0.9 12 -2.2 16.3 -3 4.2 -0.7 11.4 -2 16 -2.9 4.5 -0.8 12.7 -2.2 18.2 -3 5.5 -0.8 10.7 -1.8 11.5 -2.1 0.8 -0.3 6.5 -1.4 12.5 -2.4 6.1 -1 14.8 -2.6 19.5 -3.5 4.7 -0.8 12.1 -2.2 16.5 -3 8.6 -1.6 13 -2.5 24 -4.9 3.8 -0.9 7.9 -1.6 9 -1.6 1.1 0 3.3 -0.7 4.9 -1.5 1.5 -0.8 5.1 -1.5 8 -1.5 2.8 0 9.8 -0.9 15.6 -2 5.8 -1.1 17 -3.1 25 -4.4 8 -1.4 16.5 -3 19 -3.6 2.5 -0.6 8.6 -1.7 13.5 -2.5 5 -0.8 11.9 -2.1 15.5 -3 8.5 -2.2 52.2 -8.6 76.7 -11.4 4.5 -0.5 9 -1.4 10 -1.9 1 -0.5 4.5 -1.2 7.7 -1.6 3.3 -0.4 6.5 -1.1 7.3 -1.7 0.7 -0.6 9.8 -1.6 20.3 -2.1 16.9 -1 20.2 -0.9 29.6 0.7 5.8 1 10.7 2.2 11 2.7 0.3 0.4 2.1 0.8 4 0.8 1.9 0 3.4 0.4 3.4 0.9 0 0.9 1.6 1.2 14.3 2.7 3.1 0.3 5.7 1 5.7 1.5 0 0.4 0.9 1 1.9 1.4 3.5 1.1 3 4.4 -3.1 19.4 -5.6 13.8 -6.2 14.8 -8.4 14.3 -1.3 -0.2 -2.1 -0.8 -1.8 -1.3 1.1 -1.8 -4.4 -0.8 -6.1 1.1 -1 1.1 -2.9 2 -4.2 2 -1.3 0 -2.6 0.7 -2.9 1.5 -0.3 0.8 -2.1 1.7 -4 2.1 -1.9 0.3 -3.4 1.2 -3.4 1.9 0 1.3 -2.3 2 -12.2 3.4 -3.1 0.5 -6.1 1.2 -6.8 1.6 -0.6 0.4 -2.2 -0.3 -3.4 -1.4 -2.1 -2 -2.4 -2 -3 -0.5 -0.6 1.5 -3.6 1.7 -8.6 0.3 -1 -0.3 -1.4 0.2 -1.2 1.3 0.2 1.4 -0.4 1.5 -4 1.1 -2.4 -0.3 -4.7 -0.9 -5.3 -1.4 -1.5 -1.4 -2.8 -1 -2.1 0.7 0.5 1.3 0.1 1.4 -2.4 0.9 -1.7 -0.4 -3 -0.3 -3 0.2 0 0.4 -1.6 0.9 -3.6 1 -2 0.1 -4.4 0.9 -5.4 1.8 -1.2 1.1 -2.6 1.4 -4.3 1 -1.7 -0.5 -3.4 -0.1 -4.9 0.9 -1.2 0.9 -3 1.6 -4 1.6 -1 0 -1.7 0.3 -1.5 0.8 0.1 0.4 -0.1 0.9 -0.6 1 -1.3 0.6 -8.7 -0.9 -9.3 -1.9 -0.3 -0.5 -1.1 -0.9 -1.7 -0.9 -0.7 0 -0.4 0.6 0.5 1.4 1 0.7 1.5 1.6 1.1 1.9 -0.9 1 -5.3 0.9 -5.3 -0.1 0 -0.4 -0.9 -1.3 -2 -1.9 -1.5 -1 -2.2 -1 -3.2 0.1 -0.8 0.7 -2.4 1.6 -3.5 2 -1.3 0.4 -2 1.3 -1.7 2.1 1 2.4 -6.7 -0.3 -10.1 -3.6 -3.2 -3 -4.5 -3.6 -4.5 -1.9 0 0.6 0.6 1 1.4 1 1.3 0 2.6 2 2.6 4.1 0 0.5 -0.7 0.9 -1.5 0.9 -0.8 0 -1.5 -0.7 -1.5 -1.5 0 -0.9 -1.1 -2 -2.4 -2.5 -1.3 -0.5 -2.7 -1.4 -3.1 -1.9 -0.9 -1.6 -2.5 -1.3 -2.5 0.4 0 2.3 -1.3 1.8 -4.6 -1.5 -3.3 -3.4 -5.2 -3.7 -6.9 -1.3 -1.1 1.4 -1.6 1.5 -2.8 0.5 -1.2 -1 -2.3 -0.9 -5.6 0.9 -3.9 2 -4.3 2 -6.1 0.4 -1.7 -1.5 -2 -1.5 -4.4 0 -1.8 1.2 -3.7 1.5 -6.6 1.1 -2.3 -0.3 -4.9 -0.2 -5.8 0.3 -5.5 2.9 -11.3 5 -12.6 4.5 -0.8 -0.3 -2.1 -0.2 -2.8 0.2 -1.3 0.9 -4.5 1.4 -10 1.7 -2 0.1 -4 0.5 -4.4 1 -1.1 1.1 -2.6 0.9 -1.9 -0.3 0.3 -0.6 0.3 -1.5 0 -2 -0.4 -0.6 -2 1 -3.7 3.5 -3.1 4.7 -4.8 6.3 -4.8 4.6 0 -0.6 -0.9 -1.1 -2.1 -1.1 -1.1 0 -1.7 -0.5 -1.4 -1 0.3 -0.6 -0.1 -1.3 -1 -1.6 -1 -0.4 -2.5 0.4 -4 2 -1.6 1.7 -3 2.4 -4.1 1.9 -1.1 -0.4 -1.5 -0.3 -1 0.5 0.3 0.6 0.2 1.3 -0.3 1.6 -0.5 0.4 -1.2 0.2 -1.6 -0.4 -1.2 -1.9 -2.6 -1 -1.9 1.2 0.6 2 0.5 2.1 -1 0.9 -1.4 -1.2 -1.6 -1.1 -1.6 0.3 0 1.3 -0.4 1.5 -1.7 0.8 -1 -0.5 -2.4 -0.7 -3 -0.5 -2.8 1 -1.1 -1.5 1.8 -2.7 2.7 -1.2 2.9 -1.4 1.3 -2.3 -1.2 -0.7 -2.3 -0.6 -3.7 0.3 -1.7 1 -1.9 1 -1.4 -0.4 0.4 -1 0.1 -1.6 -0.9 -1.6 -0.8 0 -1.2 0.4 -0.9 1 0.3 0.5 0.3 1 -0.2 1.1 -3.2 0.3 -4.9 1 -6 2.5 -1.1 1.5 -1.5 1.6 -2.6 0.4 -0.9 -1 -0.9 -1.2 0.1 -0.6 0.6 0.4 1.2 0.4 1.3 -0.1 0 -0.4 0.2 -1.9 0.3 -3.1 0.2 -2 -0.1 -2.3 -2.1 -1.9 -1.3 0.2 -2.6 0 -2.9 -0.4 -1 -1.7 -2.2 -0.9 -1.7 1.1 0.8 2.9 -0.6 2.5 -1.7 -0.6 -1.2 -3 -3 -2.3 -3 1.1 0 1.5 -0.7 2.6 -2 3 -3.1 1 -4.4 -0.4 -2.4 -2.6 2.4 -2.6 2.9 -6 0.8 -5.2 -0.8 0.3 -1.3 0.8 -1 1 0.8 0.8 -2 3.2 -5 4.3 -1.5 0.6 -2.9 0.8 -3.2 0.5 -0.4 -0.3 0.4 -0.8 1.6 -1.2 4.7 -1.2 1.7 -3.3 -3.5 -2.6 -3.6 0.6 -4.6 3.3 -1.3 3.3 1.1 0 2 0.7 2 1.5 0 1.8 0.1 1.8 -3.9 0.4 -1.7 -0.6 -3.1 -1.7 -3.1 -2.4 0 -0.7 -1.3 -1.8 -2.9 -2.3 -2.7 -0.9 -3 -0.8 -3.3 1.1 -0.4 2.7 -2 2.7 -3.3 -0.2 -0.7 -1.6 -1.8 -2.1 -4.1 -1.9 -3.7 0.2 -3.5 1.8 0.5 5.6 2 1.8 3.2 2.2 5.8 1.7 2.7 -0.5 3.2 -0.3 2.7 1 -0.7 1.7 -4.9 2.1 -5.9 0.5 -0.9 -1.5 -4.1 -1.2 -5.9 0.5 -0.8 0.9 -4.1 1.7 -7.7 2 -6.2 0.5 -10.9 2.5 -10.9 4.7 0 0.6 -0.8 1.6 -1.7 2.3 -1.5 1.1 -2.2 0.9 -4.6 -1.1 -2.6 -2.2 -3.1 -2.3 -4.6 -1 -1.4 1.3 -1.8 1.3 -3.6 0 -1.7 -1.3 -2 -1.3 -2.7 0.3 -0.6 1.7 -0.7 1.7 -0.7 0.1 -0.1 -1 -0.8 -1.8 -1.6 -1.8 -0.8 0 -1.5 -0.4 -1.5 -1 0 -1.6 -2.8 0 -4.4 2.5 -1.4 2.1 -1.4 2.3 0.4 2.8 1.1 0.3 1.8 0.2 1.6 -0.2 -0.3 -0.4 0 -1.3 0.5 -2.1 0.8 -1.3 1 -1.3 1.9 0 0.5 0.8 1 2.5 1 3.8 0 1.5 0.4 2.1 1.2 1.6 0.7 -0.4 0.8 -0.3 0.4 0.4 -0.4 0.7 -0.2 1.2 0.5 1.2 0.7 0 0.9 0.3 0.6 0.7 -0.4 0.3 -1.6 -0.2 -2.6 -1.1 -1.1 -1 -2.5 -1.5 -3 -1.1 -0.6 0.3 -1.1 0.1 -1.1 -0.4 0 -0.6 -0.4 -1.1 -1 -1.1 -0.5 0 -0.7 0.7 -0.4 1.5 0.4 0.9 0 1.5 -0.9 1.5 -0.9 0 -1.4 -0.7 -1.2 -1.7 0.4 -2.8 -0.3 -3.2 -3.7 -2.2 -3.2 0.9 -6.3 -0.4 -5.2 -2.2 0.3 -0.5 -0.2 -0.9 -1 -0.9 -0.8 0 -1.8 0.5 -2.1 1 -0.9 1.5 -2.2 1.2 -2.2 -0.5 0 -0.8 0.4 -1.5 0.9 -1.5 0.4 0 0.8 -0.7 0.8 -1.6 0 -1.1 -0.6 -1.5 -1.9 -1.1 -1 0.2 -2.6 0 -3.5 -0.5 -1 -0.5 -1.6 -0.5 -1.6 0 0 1.2 -4.6 2.1 -5.7 1.2 -1.4 -1.3 -9.3 0.1 -9.3 1.6 0 0.8 -0.4 1.4 -1 1.4 -0.5 0 -1 -0.7 -1 -1.5 0 -1 -1 -1.5 -2.6 -1.5 -2.2 0 -2.4 0.2 -1.4 1.5 1.9 2.3 0.2 3.8 -3.6 3 -2.4 -0.4 -3.4 -0.2 -3.4 0.7 -0.1 0.8 -0.6 0.6 -1.5 -0.5 -1.3 -1.8 -1.5 -1.8 -4.4 0.4 -1.7 1.3 -3.1 2.7 -3.1 3.2 0 0.5 -1 0.7 -2.2 0.4 -2.4 -0.6 -6.3 1.5 -5.1 2.6 0.3 0.4 0.1 0.7 -0.6 0.7 -0.6 0 -1.6 -1.1 -2.2 -2.4 -1 -2 -3.4 -3.5 -5.9 -3.6 -0.3 0 -0.6 1.1 -0.6 2.5 -0.2 2.1 0 2.2 1.3 1 0.8 -0.8 2 -1.5 2.6 -1.4 0.9 0 0.8 0.2 0 0.6 -0.7 0.2 -1.3 1.1 -1.3 1.8 0 1 -1.1 1.3 -3.7 1.1 -2.3 -0.2 -4.2 0.2 -5.1 1.1 -1.2 1.2 -1.7 1.2 -3.3 -0.3 -1.4 -1.2 -1.6 -2.1 -0.8 -3 0.6 -0.8 0.7 -1.4 0 -1.8 -0.6 -0.4 -0.8 -1.2 -0.5 -1.9 0.3 -0.8 -0.5 -1.3 -2.1 -1.5 -2.3 -0.2 -2.5 0.1 -1.9 2.6 0.4 1.5 1.4 3.5 2.3 4.6 1.5 1.7 1.5 1.8 -0.4 1.3 -6 -1.6 -9.4 -1.7 -10.8 -0.2 -1.9 1.8 -3.4 1.9 -3.9 0.3 -0.3 -0.8 -0.9 -0.4 -1.7 1 -1.2 2.2 -4.1 3.1 -4.1 1.2 0 -2.3 -2.6 -0.8 -2.8 1.6 -0.2 3.3 -1.1 4.6 -2.3 3.8 -0.6 -0.4 -0.6 -1.1 0.1 -1.9 2 -2.4 0 -3.8 -2 -1.5 -0.9 1.1 -2.6 2 -3.6 2 -1.4 0 -1.5 -0.3 -0.6 -1.2 1.8 -1.8 1.4 -3.1 -0.8 -2.5 -1.1 0.3 -1.8 0 -1.7 -0.6 0.3 -1.5 -5.6 -1.9 -6.5 -0.4 -0.4 0.7 -0.8 1.8 -0.8 2.6 0 1.1 0.3 1.1 1.5 0.1 1.7 -1.4 5.8 -0.4 5.2 1.3 -0.3 0.7 -1 1.1 -1.6 0.9 -0.6 -0.1 -1.1 0.2 -1.1 0.7 0 1.6 -4.9 1.9 -6.2 0.3 -1.1 -1.3 -1.1 -1.4 0.2 -0.7 1 0.6 0.9 0.2 -0.3 -1.2 -1.6 -1.9 -2.1 -1.9 -4.5 -0.8 -1.5 0.8 -3.4 1.5 -4.2 1.7 -0.8 0.2 -2 0.9 -2.6 1.7 -0.9 1.1 -1.7 1.2 -4.4 0.3 -4.6 -1.6 -5.3 -1.5 -4.7 0.8 0.6 2.2 -1.2 2.7 -3 0.9 -1.5 -1.5 -5.3 -0.2 -5.3 1.8 0 1.4 -0.3 1.4 -2.2 0.1 -1.9 -1.3 -3 -1.3 -8.1 -0.1 -4.5 1.1 -6.2 1.1 -6.7 0.2 -0.6 -0.8 -0.9 -0.8 -1.5 0.1 -0.4 0.6 -0.4 1.4 -0.1 1.7 0.3 0.4 -0.3 1.3 -1.5 2.1 -1.4 1 -1.7 1.7 -1 2.6 0.6 0.7 0.8 1.6 0.4 1.9 -0.7 0.8 -3.3 1 -3.3 0.3z m67.6 -24.4 c-0.7 -0.7 -3.6 2.5 -3.6 3.9 0 0.7 0.9 0.2 2 -1.1 1.1 -1.3 1.8 -2.5 1.6 -2.8z m10.4 -2.3 c0 -0.5 0.7 -0.9 1.5 -0.9 0.8 0 1.5 -0.5 1.5 -1.1 0 -0.5 -1.3 -0.2 -3 0.8 -3.1 1.8 -4.1 3.7 -1.5 2.7 0.8 -0.4 1.5 -1 1.5 -1.5z m80 -13.8 c0 -1.2 -2 -2.5 -2.7 -1.8 -0.7 0.7 0.6 2.7 1.8 2.7 0.5 0 0.9 -0.4 0.9 -0.9z m141.9 -4.4 c1.3 0.4 1.3 0.3 0.2 -0.5 -1.6 -1.2 -4.1 -0.5 -4.1 1.1 0 0.8 0.3 0.8 1.1 0 0.6 -0.6 1.9 -0.9 2.8 -0.6z"/>
  <path d="M289.7 463.3 l-2.8 -0.4 2.3 -1.9 c1.2 -1 2.7 -1.6 3.3 -1.4 1.2 0.5 1.8 4.5 0.7 4.3 -0.4 -0.1 -1.9 -0.4 -3.5 -0.6z"/>
  <path d="M365.1 449.1 c-0.9 -0.6 -0.6 -0.8 1.3 -0.8 1.4 0 2.3 0.3 2 0.8 -0.7 1.1 -1.5 1.1 -3.3 0z"/>
  <path d="M402 442.3 c0 -0.5 0.4 -1.4 0.9 -2.1 0.6 -1 1 -0.9 1.4 0.7 0.3 1.4 0 2.1 -0.9 2.1 -0.8 0 -1.4 -0.3 -1.4 -0.7z"/>
 </g>
 <g fill="#298ad0">
  <path d="M268 444 c-0.8 -0.5 -3.2 -0.7 -5.2 -0.3 -3.1 0.4 -3.8 0.2 -3.8 -1.1 0 -1.6 -6.4 -5.1 -10.5 -5.8 -2.9 -0.5 -2.8 -5.8 0.1 -23.3 3.4 -20.4 6.4 -28.3 15.5 -40.5 5.8 -7.8 10.9 -12.8 21.2 -20.6 10.3 -7.8 12.4 -8.9 17.1 -9.7 2.2 -0.4 4.4 -1.3 4.8 -2.2 0.6 -1 2.4 -1.5 5.7 -1.5 4 0 4.9 -0.4 5.9 -2.4 0.8 -1.7 2.5 -2.7 7.1 -3.8 l6.1 -1.6 0.6 3.9 c0.6 3.6 0.9 3.9 4 3.9 3.2 0 3.4 0.2 3.4 3.5 0 3.3 -0.2 3.5 -3.4 3.5 -3 0 -3.5 -0.4 -3.8 -2.6 l-0.3 -2.6 -2.2 2 c-1.3 1.1 -2.3 3.1 -2.3 4.6 0 1.4 -0.5 2.6 -1.2 2.6 -2.7 0 -8.7 3.6 -8.8 5.2 0 1.3 -1.2 2 -4.2 2.5 -2.4 0.3 -3.7 0.8 -3 1.1 0.6 0.2 1.2 1.7 1.2 3.3 0 2.8 0.1 2.9 5 2.9 2.8 0 5 0.5 5 1 0 0.6 0.9 1 2 1 1.3 0 2 0.7 2 2 0 2.4 3.5 2.8 4.4 0.5 0.6 -1.7 7.1 -2.1 8.1 -0.5 1 1.6 2.5 1.1 2.5 -0.9 0 -1.5 1.1 -1.9 7.8 -2.4 4.5 -0.4 11.4 -0.1 16.5 0.7 l8.7 1.3 0 -2.4 c0 -2 0.5 -2.3 3.8 -2.3 2.1 0 4.3 0.5 5 1.2 1.4 1.4 11.1 1.1 12.9 -0.4 0.8 -0.7 4.1 -0.8 8.8 -0.3 6.7 0.6 7.5 0.5 7.5 -1 0 -1.5 0.7 -1.7 4.8 -1.1 13.5 1.8 15.2 1.9 15.2 0.7 0 -0.6 1.1 -1.1 2.4 -1.1 1.4 0 2.7 -0.4 3.1 -0.9 0.7 -1.2 16.5 -1.3 16.5 -0.2 0 1.7 3.2 2.1 4.6 0.6 0.9 -0.8 2.6 -1.5 4 -1.5 1.3 0 2.4 -0.4 2.4 -0.8 0 -0.5 5.4 -0.8 12 -0.8 8.7 0.1 12.3 -0.3 12.9 -1.2 0.5 -0.8 3.1 -1.1 8.4 -1 5.8 0.2 8 -0.1 8.6 -1.1 0.9 -1.4 8.3 -1.2 12.4 0.4 1.2 0.5 1.7 0.2 1.7 -1.2 0 -1.9 0.9 -2 16.3 -2 9.1 -0.1 21.1 -0.8 27.5 -1.7 6.2 -0.9 11.7 -1.6 12.2 -1.6 0.6 0 1 -0.7 1 -1.5 0 -1 1 -1.5 3.4 -1.5 1.9 0 3.6 0.4 3.8 0.9 0.3 0.8 7.7 0 18.8 -2 3 -0.6 14.6 -1.4 25.7 -1.9 11.1 -0.5 21 -1.3 22.1 -1.9 1.2 -0.6 4 -1.1 6.5 -1.1 2.4 0 4.7 -0.3 5.1 -0.7 0.4 -0.5 4.7 -1.3 9.4 -2 15.9 -2.1 18.2 -2.6 18.2 -3.4 0 -0.5 1.6 -0.9 3.5 -0.9 2.1 0 3.5 0.5 3.5 1.2 0 0.9 0.3 0.9 1.2 0 0.7 -0.7 4.3 -1.2 9.3 -1.2 4.4 0 9.6 -0.5 11.5 -1 1.9 -0.6 9.5 -1.3 16.8 -1.7 7.2 -0.3 13.2 -1 13.2 -1.6 0 -0.5 1.8 -0.7 4 -0.5 2.2 0.2 4 0 4 -0.4 0 -0.4 3.9 -0.6 8.6 -0.5 7.2 0.2 8.7 -0.1 9.5 -1.6 1.3 -2.3 7.6 -2.4 8.1 0 0.2 1.3 1.6 0.4 5.6 -3.5 2.8 -2.8 5.2 -5.6 5.2 -6.3 0 -0.8 1.4 -1 4.5 -0.7 l4.5 0.6 0 -3.4 c0 -1.9 0.5 -3.4 1 -3.4 0.6 0 1 -1.1 1 -2.4 0 -1.3 0.7 -2.6 1.5 -3 0.9 -0.3 1.5 -1.9 1.5 -4.1 0 -3.2 0.2 -3.5 3.1 -3.5 l3.1 0 -0.4 12.9 c-0.2 7.1 -0.6 13.2 -0.9 13.6 -0.4 0.3 -1.8 0.3 -3.3 -0.1 -2.1 -0.5 -2.6 -1.2 -2.6 -3.5 0 -1.6 -0.4 -2.9 -1 -2.9 -1.6 0 -1.2 5.6 0.5 7 0.8 0.7 1.5 1.9 1.5 2.6 0 0.8 0.9 1.4 1.9 1.4 1.9 0 1.9 0.2 0.4 5.3 -0.8 2.8 -4.7 12.7 -8.6 21.8 -5.8 13.7 -7.3 16.5 -8.8 16.2 -1 -0.3 -1.5 -1.1 -1.3 -1.8 0.3 -0.7 -0.4 -1.6 -1.5 -2 -1.2 -0.3 -2.1 -1.1 -2.1 -1.7 0 -0.5 -0.7 -0.8 -1.5 -0.5 -0.8 0.4 -3.7 0 -6.5 -0.7 -2.8 -0.7 -5.3 -1 -5.6 -0.5 -0.6 1 -5.6 -0.8 -6.6 -2.4 -0.5 -0.9 -1.4 -0.9 -3.7 -0.1 -2.6 1 -3 0.9 -3.4 -0.8 -0.4 -1.4 -1.1 -1.8 -2.5 -1.3 -1.1 0.3 -2.3 0.1 -2.7 -0.4 -0.3 -0.6 -1.6 -1 -2.8 -1 -1.2 0 -3.8 -0.3 -5.7 -0.8 -1.9 -0.5 -6.9 -0.8 -11 -0.6 -4.1 0.1 -11.1 0.4 -15.5 0.5 -4.4 0.2 -8.6 0.7 -9.3 1.1 -0.7 0.5 -2.1 0.6 -3.1 0.2 -1 -0.3 -2.3 0.1 -3 0.8 -0.7 0.9 -3.2 1.5 -6.2 1.6 -2.8 0 -7.1 0.8 -9.6 1.6 -2.4 0.8 -7 1.7 -10.1 1.9 -3.2 0.3 -9.5 1 -14.2 1.7 -4.7 0.6 -9.4 1.3 -10.5 1.4 -1.1 0.1 -2.7 0.4 -3.5 0.8 -0.8 0.3 -2.8 0.6 -4.5 0.5 -1.6 0 -5.5 0.5 -8.5 1.1 -6.2 1.3 -8.6 1.6 -18 2.6 -6.4 0.6 -13 2 -16 3.2 -0.8 0.4 -2.4 0.8 -3.5 0.9 -1.1 0.1 -4.9 0.7 -8.5 1.4 -3.6 0.6 -7.6 1.2 -9 1.4 -1.4 0.2 -4.7 0.9 -7.5 1.5 -5.8 1.4 -17.9 4 -21.5 4.6 -1.4 0.3 -5 0.7 -8 1 -3 0.3 -10 1.4 -15.5 2.5 -5.5 1.1 -12.5 2.1 -15.5 2.2 -3 0.1 -6.6 0.8 -8 1.5 -1.4 0.7 -3.4 1.3 -4.5 1.3 -1.1 0 -5.2 0.7 -9 1.6 -8.8 1.9 -34.1 6.8 -48 9.3 -3.3 0.6 -8.7 1.6 -12 2.3 -3.3 0.6 -6.4 1.1 -6.9 0.9 -0.4 -0.1 -2.2 0.3 -4 0.8 -2.9 1 -12 2.7 -19.6 3.7 -1.9 0.2 -7.2 1.1 -11.7 2 -4.6 0.8 -11.8 2.1 -16 2.8 -12.1 2.2 -18.1 3.3 -27.6 5.1 -4.9 0.9 -9.1 1.4 -9.4 1.1 -0.3 -0.3 -1.8 0.1 -3.4 0.9 -1.5 0.8 -3.9 1.5 -5.3 1.5 -1.4 0 -2.8 0.5 -3.1 1 -0.4 0.6 -2.4 1 -4.5 0.8 -2.1 -0.1 -4.5 0.4 -5.3 1 -1.8 1.5 -4.8 2.2 -10.3 2.6 -2.2 0.1 -5.1 1 -6.4 1.9 -1.6 1.1 -2.8 1.3 -3.5 0.7 -0.8 -0.7 -1.8 -0.3 -3.1 1.1 -1.2 1.4 -2.5 1.8 -4.1 1.4 -1.6 -0.4 -2.5 0 -2.9 0.9 -0.3 0.9 -2.2 1.9 -4.2 2.2 -2 0.4 -4.3 1.3 -5 2.1 -0.7 0.7 -1.9 1.3 -2.6 1.3 -0.7 0 -2.1 0.9 -3.1 2 -2 2.3 -2.4 2.3 -4.5 1z"/>
 </g>
 <g fill="#2995d9">
  <path d="M334.4 378.3 c-2.6 -0.3 -3.1 -0.8 -2.7 -2.4 0.6 -2 -2 -2.8 -3.2 -1 -0.9 1.5 -8.5 1.1 -8.5 -0.4 0 -0.7 -0.9 -1.5 -2.1 -1.8 -1.1 -0.3 -2.3 -1.5 -2.6 -2.6 -0.6 -2.2 -1.9 -2.6 -4.1 -1.2 -1.1 0.7 -1.1 0.9 0.1 1.4 1.4 0.5 3.1 4.7 1.9 4.7 -0.4 0 -2 -1.3 -3.5 -2.9 -1.8 -2 -2.4 -3.2 -1.6 -3.7 0.8 -0.4 0.7 -0.9 -0.2 -1.5 -1.1 -0.7 -1.2 -1.2 -0.1 -2.9 1 -1.7 1 -2 -0.4 -2 -1.2 0 -1.5 -0.6 -1 -2.4 0.4 -1.8 0.1 -2.8 -1.1 -3.4 -1.4 -0.8 -1.1 -1.1 1.4 -1.6 1.7 -0.4 3.4 -0.6 3.9 -0.5 2.9 0.5 4.5 -0.2 4 -1.9 -0.5 -1.4 0.2 -2 2.6 -2.7 4.2 -1.3 4.2 -2.9 0 -3.3 -1.8 -0.2 -3 -0.8 -2.7 -1.3 0.4 -0.5 -0.2 -0.9 -1.2 -1 -1.3 -0.1 -1.1 -0.3 0.7 -0.9 l2.5 -0.8 -2.8 -0.1 c-1.6 -0.1 -3 0.5 -3.3 1.4 -0.4 0.8 -1.2 1.5 -2 1.5 -0.8 0 -1.4 0.5 -1.4 1.1 0 0.5 -0.4 0.7 -1 0.4 -1.3 -0.8 -1.3 0.8 0.1 2.2 0.8 0.8 0.8 1.3 0 1.7 -0.6 0.4 -1.1 0 -1.1 -0.9 0 -1.2 -0.6 -1.4 -2.7 -0.9 -1.6 0.4 -3.6 1.1 -4.5 1.5 -2.2 1.2 -5.6 0 -3.6 -1.2 1 -0.7 0.9 -0.9 -0.5 -0.9 -3.2 0 -0.8 -1.9 7.7 -5.9 12.8 -6 22.8 -9.4 23.7 -8 0.4 0.7 1.4 0.9 2.4 0.6 0.9 -0.4 1.4 -1.1 1.1 -1.6 -0.8 -1.2 14.8 -4.8 53.9 -12.2 17.6 -3.3 36.5 -7.1 42 -8.4 8.7 -2 20 -4.3 72.5 -14.5 5.8 -1.1 16.8 -3.4 24.5 -5 7.7 -1.7 22.1 -4.7 32 -6.6 9.9 -1.9 25.9 -5.1 35.5 -7 9.6 -2 31.4 -6.2 48.3 -9.4 17 -3.3 40.8 -8 53 -10.4 39.8 -8.1 56.6 -10.6 70 -10.6 19 0 29.3 3.7 39.7 14.1 6.8 6.9 10.2 13.2 13 24.4 2.4 9.8 2.4 10.2 0.3 10.8 -1.7 0.4 -1.7 0.5 0 0.6 1.8 0.1 2.5 4.1 0.7 4.1 -1.5 0 -4.7 3.5 -4.3 4.7 0.2 0.6 -0.3 1.8 -1.1 2.6 -1.4 1.4 -1.2 1.6 2.4 2.2 4.4 0.7 5.3 2.8 1.8 4 -2 0.6 -2 0.8 -0.5 1.2 2 0.5 2.1 2.3 0.6 7.6 -0.6 2.4 -1.6 3.7 -2.7 3.7 -1.3 0 -1.4 0.2 -0.4 0.9 1.1 0.6 0.9 0.9 -0.7 1.4 -2.4 0.6 -3.1 0 -3.1 -2.6 0 -1 -1.1 -3.2 -2.5 -4.9 -1.4 -1.6 -2.5 -3.5 -2.5 -4.3 0 -0.7 -0.7 -1.5 -1.5 -1.9 -0.8 -0.3 -1.4 -0.2 -1.2 0.2 0.3 0.9 -8.4 9.6 -11 11 -2.5 1.4 -6.3 0.4 -6.3 -1.5 0 -0.8 -0.5 -1.1 -1.1 -0.7 -0.8 0.4 -0.8 0.9 0 1.7 1.5 1.5 1.4 2.7 -0.4 2.7 -0.8 0 -1.5 -0.4 -1.5 -1 0 -1.7 -3 -1.1 -5.7 1 -3.1 2.4 -6.2 2.8 -4.4 0.6 1 -1.2 0.8 -1.3 -0.8 -0.9 -1.2 0.3 -2.9 -0.1 -3.8 -0.8 -1.1 -1 -1.7 -1 -2 -0.3 -0.2 0.6 -1 1.9 -1.7 2.9 -1.3 1.8 -1.4 1.7 -3.6 -0.3 -1.3 -1.2 -2.6 -1.9 -2.9 -1.6 -0.3 0.3 0.1 0.9 0.8 1.3 0.8 0.6 0.9 1.1 0.3 1.5 -0.6 0.3 -1.3 0.2 -1.7 -0.4 -0.8 -1.3 -6.2 -1.3 -7 0 -0.8 1.3 -6.2 1.3 -7.1 -0.1 -0.4 -0.7 -2 -0.8 -4.2 -0.4 -1.9 0.3 -5.6 0.8 -8.1 1 -2.5 0.2 -4.7 0.8 -4.8 1.2 -0.2 0.4 -4.4 0.8 -9.3 0.7 -5.8 0 -9.4 0.4 -10 1.1 -1.2 1.4 -6.1 0.7 -7.2 -0.9 -0.5 -0.7 -0.8 -0.4 -0.8 0.8 0 1.5 -0.6 1.7 -3.2 1.3 -1.8 -0.2 -4.4 0 -5.7 0.5 -2.4 0.9 -9.3 1.9 -14.6 2.2 -1.6 0 -3.7 0.5 -4.5 1.1 -0.8 0.5 -3.6 1 -6.2 1.1 -2.6 0.1 -5.4 0.7 -6.3 1.4 -0.9 0.8 -2.7 1 -5 0.6 -2.4 -0.5 -4.2 -0.2 -5.9 0.9 -1.3 0.9 -2.7 1.2 -2.9 0.7 -0.6 -0.9 -19.8 -0.9 -21.3 0.1 -0.6 0.3 -1.6 0.2 -2.3 -0.2 -1.8 -1.2 -5.1 -0.2 -5.1 1.5 0 1.5 -2.6 1.9 -3.4 0.6 -0.6 -1.1 -16.5 0.5 -18 1.7 -0.6 0.6 -2.9 1 -5.1 1.1 -6 0.1 -8.2 0.5 -9.9 1.9 -1.1 1 -2 1 -3.7 0.1 -2.2 -1.2 -3.1 -0.7 -4.2 2.5 -0.2 0.6 -1.3 0.2 -2.5 -0.8 -1.6 -1.5 -2.4 -1.6 -4.1 -0.7 -1.2 0.6 -3.6 0.8 -5.7 0.4 -2.6 -0.5 -4 -0.2 -5.3 1.1 -1.7 1.5 -2.2 1.5 -4.8 0.2 -2.8 -1.5 -8.9 -1.2 -9.9 0.4 -0.3 0.5 -1.3 0.3 -2.4 -0.3 -1.4 -0.9 -2.2 -0.9 -3.4 0.1 -1.3 1.1 -1.6 1.1 -1.6 -0.3 0 -0.9 -0.7 -1.6 -1.5 -1.6 -0.8 0 -1.5 0.5 -1.5 1 0 0.6 0.5 1 1.1 1 0.8 0 0.7 0.5 -0.2 1.6 -1.2 1.5 -2.5 1.5 -9.9 0.1 -0.9 -0.2 -2.2 -0.7 -3 -1.2 -0.9 -0.5 -1.5 -0.4 -1.8 0.3 -0.2 0.7 -2.1 1.5 -4.3 1.8 -2.1 0.4 -3.6 1 -3.3 1.5 0.3 0.5 -0.4 0.9 -1.5 0.9 -1.2 0 -2.1 -0.4 -2.1 -0.9 0 -1.6 -5.2 -2.3 -6.1 -0.9 -0.5 0.7 -2.1 1.1 -3.9 1 -1.6 -0.2 -3 0.1 -3 0.7 0 0.6 -2 0.9 -4.7 0.7 -5.6 -0.4 -7.3 0.1 -7.3 2 0 0.8 -1 1.4 -2.6 1.4 -2.3 0 -2.5 -0.2 -1.4 -1.5 1 -1.3 1.1 -1.8 0.1 -2.8 -1 -0.9 -1.4 -0.8 -2.2 0.5 -0.5 0.9 -1.7 1.4 -2.7 1.1 -1 -0.2 -3 0.7 -4.6 2.1 -2.8 2.3 -3 2.4 -6.3 0.8 -1.8 -0.9 -3.3 -1.9 -3.3 -2.4 0 -0.4 -0.4 -0.8 -1 -0.8 -0.5 0 -0.7 0.7 -0.3 1.6 0.5 1.4 0.1 1.5 -2.8 0.9 -1.9 -0.4 -3.9 -1.2 -4.6 -1.7 -0.7 -0.6 -1.4 -0.5 -1.8 0.2 -1.2 2 -8.3 5.1 -9.1 3.9 -0.4 -0.7 -2.3 -0.9 -5 -0.5 -2.5 0.3 -4.6 0.1 -4.9 -0.5 -0.4 -0.5 -1.4 -0.9 -2.3 -0.7 -1 0.1 -2.3 -0.1 -2.9 -0.5 -0.9 -0.6 -1.1 -0.3 -0.7 0.8 0.6 1.6 -1.1 4.5 -2.7 4.5 -0.5 0 -0.9 -0.7 -0.9 -1.5 0 -2.1 -3 -1.9 -4.6 0.3 -1.2 1.5 -1.5 1.5 -2.4 0.2 -0.9 -1.3 -1.2 -1.3 -2.3 0.1 -1 1.3 -1.4 1.4 -2.5 0.3 -0.9 -1 -0.8 -1.5 0.6 -2.3 1 -0.6 1.2 -1.1 0.4 -1.1 -0.7 0 -2.4 0.7 -3.7 1.6 -1.4 0.9 -3.2 1.3 -4.5 0.9 -1.6 -0.5 -2.3 -0.2 -2.7 1.4 -0.3 1.2 -1 2.1 -1.5 2.1 -0.6 0 -0.8 -0.8 -0.6 -1.8 0.4 -1.5 0.1 -1.8 -1.8 -1.4 -1.3 0.2 -2.4 0.8 -2.4 1.3 0 0.5 -0.7 0.9 -1.5 0.9 -0.8 0 -1.5 -0.6 -1.5 -1.4 0 -1.6 -2.8 -4.1 -3.7 -3.3 -0.3 0.4 -0.1 1.3 0.5 2 1.3 1.5 0.6 2.7 -1.6 2.7 -0.8 0 -2 0.8 -2.7 1.7 -1.1 1.5 -1.5 1.5 -2.9 0.4 -1.2 -1 -1.9 -1.1 -3 -0.2 -1 0.9 -1.7 0.5 -3.2 -1.4 -1.7 -2.2 -1.9 -2.3 -2.5 -0.7 -0.9 2.4 -6.1 5.1 -6.6 3.5 -0.6 -1.6 -3.3 -0.5 -3.3 1.3 0 1.8 -0.3 1.8 -4.1 -0.5 -2.2 -1.3 -4.2 -1.8 -6.5 -1.4 -2.5 0.4 -4 0.1 -5.4 -1.2 -1.8 -1.6 -2 -1.7 -2.6 -0.1 -0.9 2.4 -0.1 2.8 5 3 2.4 0 4.8 0.4 5.2 0.8 0.6 0.7 -4 3 -5.4 2.6 -0.4 0 -2.1 -0.3 -3.8 -0.5z m21.5 -7.2 c0.7 -0.5 1.1 -1.4 0.7 -1.9 -0.9 -1.5 -3.6 -0.4 -3.6 1.4 0 1.6 0.9 1.8 2.9 0.5z m-30.6 -30.9 c-1.9 -0.3 -2.1 -0.7 -1.3 -2.3 0.8 -1.3 0.7 -1.9 0 -1.9 -0.6 0 -1.4 1 -1.9 2.3 -0.9 2.4 1.1 3.9 3.9 2.8 1.1 -0.4 0.9 -0.7 -0.7 -0.9z"/>
  <path d="M303.6 368.3 c-1.1 -1.1 -0.6 -2.3 0.9 -2.3 0.8 0 1.5 0.4 1.5 0.9 0 1.3 -1.6 2.2 -2.4 1.4z"/>
  <path d="M300.2 354.1 c0.4 -1.3 1.8 -1.6 1.9 -0.4 0 0.4 -0.5 0.9 -1.1 1.2 -0.7 0.2 -1.1 -0.2 -0.8 -0.8z"/>
  <path d="M308.7 350.4 c-0.8 -0.8 1.8 -3.4 3.3 -3.4 0.7 0 0.9 0.7 0.6 1.6 -0.3 0.9 -0.6 1.8 -0.6 2 0 0.6 -2.6 0.5 -3.3 -0.2z"/>
 </g>
</svg>