<?xml version="1.0" encoding="utf-8"?>
<!DOCTYPE svg PUBLIC "-//W3C//DTD SVG 1.0//EN" "http://www.w3.org/TR/2001/REC-SVG-20010904/DTD/svg10.dtd">
<svg version="1.0" xmlns="http://www.w3.org/2000/svg" width="692px" height="268px" viewBox="0 0 692 268" preserveAspectRatio="xMidYMid meet">
 <g fill="#ffffff">
  <path d="M0 134 l0 -134 346 0 346 0 0 134 0 134 -346 0 -346 0 0 -134z m69.5 50.4 c16 -18.6 16.8 -19.4 20.5 -19.4 2.9 0 8.2 1.9 18.5 6.5 1.7 0.8 5.7 2.6 9 4 3.3 1.5 7.4 3.3 9.2 4.1 1.7 0.8 3.5 1.4 4 1.4 0.4 0 2.1 0.7 3.7 1.5 1.6 0.9 3 1.4 3.2 1.2 0.2 -0.2 -1.2 -2.8 -3.1 -5.8 -2.3 -3.6 -3.5 -6.6 -3.5 -9.1 l0 -3.8 10.9 0 c12.6 0 18.2 -1.8 23.9 -7.9 4.2 -4.4 6.5 -8.8 13.5 -26.1 3 -7.4 6 -14.8 6.7 -16.5 0.7 -1.6 2.1 -5.2 3.3 -8 1.1 -2.7 2.6 -6.3 3.3 -8 4.5 -10.6 8.4 -21 8.4 -22.4 0 -2.8 -3.9 -8.1 -6.8 -9.2 -2.9 -1.2 -21.6 0.4 -23.6 2 -0.6 0.4 -5.1 1.3 -9.9 2 -4.9 0.7 -9.6 1.6 -10.5 2.1 -1 0.5 -5.4 1.3 -9.9 1.9 -4.5 0.6 -9 1.5 -10 2 -1 0.5 -5.6 1.4 -10.2 2 -4.6 0.6 -8.9 1.5 -9.5 2 -0.6 0.5 -4.2 1.2 -8.1 1.6 -3.8 0.4 -8.8 1.3 -11 2.1 -2.2 0.7 -4.9 1.4 -6 1.4 -2.3 0 -8.9 3.4 -13.3 6.9 -5.1 3.9 -7.1 9.6 -8.7 25.4 -0.8 7.8 -1.9 17.6 -2.5 21.7 -0.5 4.1 -1.4 11.8 -1.9 17 -0.5 5.2 -1.6 15.1 -2.5 22 -0.8 6.9 -1.7 15 -2.1 18 l-0.6 5.5 2.3 -2.6 c1.3 -1.5 7.3 -8.4 13.3 -15.5z m179.5 -30.9 l0 -16.5 -6.9 0 -6.8 0 -0.7 3.1 c-0.3 1.7 -0.6 7.8 -0.6 13.4 0 5.6 0.3 11.7 0.6 13.4 l0.7 3.1 6.8 0 6.9 0 0 -16.5z m34 7.3 c0 -14 -0.1 -13.8 8 -13.8 6.3 0 7 0.2 9.2 2.9 1.2 1.5 2.8 3.6 3.3 4.6 1 1.6 1.3 1.6 6 0.1 l5 -1.7 -0.3 -4.4 c-0.4 -4.1 -0.2 -4.6 2.3 -5.5 3 -1.2 7.9 -6.2 10.2 -10.5 1.9 -3.6 2.1 -13.2 0.3 -16.6 -2.9 -5.5 -6.4 -9 -11.5 -11.5 -5.1 -2.4 -6.8 -2.6 -23.7 -3.1 -12.3 -0.3 -19.2 -0.2 -21.1 0.6 -2.6 1 -2.8 1.4 -2.5 5.8 l0.3 4.8 19.5 0.5 c19.3 0.5 23.1 1.2 25.2 4.4 0.4 0.6 0.8 4.3 0.8 8.2 0 10.6 -0.3 10.8 -25.5 11.4 l-20 0.5 -0.3 16.3 -0.2 16.2 7.5 0 7.5 0 0 -9.2z m42.5 5.8 c-2.1 -3.1 -3 -3.2 -8.5 -0.7 l-4.3 1.9 5.9 0.7 c3.2 0.4 6.4 0.8 6.9 0.9 1.7 0.5 1.7 -0.1 0 -2.8z m80.3 -1.8 l-0.3 -5.3 -19.5 -0.3 c-14 -0.2 -19.6 -0.6 -20.2 -1.5 -1 -1.5 -1 -15.4 0 -16 0.4 -0.3 8.3 -0.8 17.6 -1.1 9.3 -0.4 17.3 -0.9 17.8 -1.2 1.2 -0.8 1 -6.8 -0.4 -8.2 -0.8 -0.8 -6.4 -1.2 -18.5 -1.2 l-17.4 0 0.3 -8.2 0.3 -8.3 19.8 -0.3 19.7 -0.2 0 -5.4 c0 -5.2 -0.1 -5.4 -3.1 -6 -5.1 -1 -46.5 -0.7 -49.3 0.4 l-2.6 1 0 32.8 c0 18.1 0.3 33.2 0.7 33.5 0.3 0.4 13 0.7 28 0.7 l27.4 0 -0.3 -5.2z m37.2 -5.3 l0 -10.5 7 0 c13.6 0 25.3 -4.5 30.3 -11.6 5 -7.2 6 -11.4 4.2 -17.7 -1.7 -5.8 -6.1 -11.8 -10.3 -14.1 -6.8 -3.7 -7.9 -3.9 -26.7 -4 l-19 -0.1 -0.3 5.3 -0.3 5.2 17.7 0 c16.1 0 18 0.2 21 2.1 3.9 2.4 5 6.3 4.1 14.2 -1.1 8.9 -1.7 9.1 -23.5 9.7 l-18.7 0.5 -0.3 15.8 -0.3 15.7 7.6 0 7.5 0 0 -10.5z m113.8 4.8 l-0.3 -5.8 -17.7 -0.3 -17.8 -0.2 0 -27.9 0 -27.9 -3.9 -0.7 c-2.1 -0.3 -5.5 -0.3 -7.5 0 l-3.6 0.7 0 33.9 0 33.9 25.5 0 25.6 0 -0.3 -5.7z m57.2 -7.8 c0 -15.2 0.2 -15.8 8.5 -28.7 11.8 -18.4 15.7 -25.3 14.8 -26.2 -0.8 -0.8 -6.2 -0.8 -10.1 0 -2.3 0.5 -3.5 1.5 -4.7 4.3 -0.8 2 -3.3 6.8 -5.5 10.6 -2.3 3.9 -4.6 8 -5.2 9.3 -0.8 1.5 -2 2.2 -4.1 2.2 -2.8 0 -6.7 -2.3 -6.7 -4 0 -0.4 -2.6 -5.4 -5.9 -11.1 l-5.8 -10.4 -5.6 -0.9 c-7.1 -1.2 -9.3 -0.4 -7.5 2.5 0.7 1.1 2.2 3.6 3.3 5.4 8.1 13.6 17.1 28.3 18.2 29.6 0.9 1.1 1.3 5.6 1.3 16.2 l0 14.7 7.5 0 7.5 0 0 -13.5z m-365.5 -49.5 l0 -5.5 -6.7 -0.3 -6.8 -0.3 0 6.1 0 6.1 6.8 -0.3 6.7 -0.3 0 -5.5z"/>
  <path d="M95.3 130.5 c-2.6 -1.8 -3.8 -7 -2.9 -11.9 0.8 -4.1 4.7 -6.1 10.7 -5.3 5.9 0.8 6.9 2.1 6.9 8.6 0 4.7 -0.4 6.1 -2.3 7.9 -2.8 2.6 -9.2 3 -12.4 0.7z"/>
  <path d="M119.6 123.8 c-2.1 -2.9 -2 -10.2 0 -13.3 1.4 -2.2 2.4 -2.5 7.4 -2.5 6.4 0 8.5 1.5 9.6 6.8 1.5 7.7 -1.5 11.2 -9.6 11.2 -4.9 0 -6.1 -0.4 -7.4 -2.2z"/>
  <path d="M145.7 119.2 c-1.2 -1.3 -1.7 -3.7 -1.7 -7.5 0 -6.8 2 -8.7 9.2 -8.7 6.5 0 8.8 2.3 8.8 8.8 0 7.3 -1.9 9.2 -8.9 9.2 -4.3 0 -6.2 -0.5 -7.4 -1.8z"/>
 </g>
 <g fill="#1e91da">
  <path d="M308.7 169.2 c-2.1 -2.3 -2.1 -3.8 0 -4.6 1.8 -0.7 5.3 2.4 5.3 4.9 0 2.1 -3.3 1.9 -5.3 -0.3z"/>
  <path d="M61.3 108.7 c0.6 -8.6 3.5 -15.5 7.9 -18.8 4.4 -3.5 11 -6.9 13.3 -6.9 1.1 0 3.8 -0.7 6 -1.4 2.2 -0.8 7.2 -1.7 11 -2.1 3.9 -0.4 7.5 -1.1 8.1 -1.6 0.6 -0.5 4.9 -1.4 9.5 -2 4.6 -0.6 9.2 -1.5 10.2 -2 1 -0.5 5.5 -1.4 10 -2 4.5 -0.6 8.9 -1.4 9.9 -1.9 0.9 -0.5 5.6 -1.4 10.5 -2.1 4.8 -0.7 9.3 -1.5 9.8 -2 0.6 -0.4 3.3 -1 6 -1.4 2.8 -0.3 8.2 -1.1 12 -1.6 8.5 -1.3 13.5 0.4 16.5 5.4 3.2 5.2 2.6 11 -2.2 22.8 -6.8 16.6 -7.6 17.2 -8.5 7 -0.9 -10.2 3.9 -10.4 -77.3 4.3 -10.7 2 -23.5 4.3 -28.5 5.2 -4.9 0.9 -10.7 2.5 -12.8 3.5 -2.1 1 -4.4 1.9 -5.3 1.9 -0.8 0 -1.7 0.7 -2 1.5 -0.4 0.8 -1.5 1.5 -2.7 1.5 -1.9 0 -2 -0.4 -1.4 -7.3z"/>
  <path d="M159 111.5 c0 -2.2 -3.7 -5.5 -6 -5.5 -1.2 0 -3.2 1.1 -4.6 2.5 -1.4 1.4 -2.7 2.5 -2.9 2.5 -0.3 0 -0.5 -1.6 -0.5 -3.5 0 -1.9 0.5 -3.5 1 -3.5 0.6 0 1 -0.7 1 -1.5 0 -1.1 1.2 -1.5 4.6 -1.5 4.4 0 7.4 1.6 7.4 3.9 0 0.6 0.7 1.1 1.5 1.1 1 0 1.5 1.1 1.5 3.5 0 2.4 -0.5 3.5 -1.5 3.5 -0.8 0 -1.5 -0.7 -1.5 -1.5z"/>
 </g>
 <g fill="#1f77c4">
  <path d="M312.4 170.9 c-1.7 -0.5 -3.5 -1.9 -4.2 -3.3 -1 -2.3 -0.8 -2.5 3.6 -4.1 8 -2.8 10.2 -3 10.2 -0.8 0 1.1 -1.1 2.5 -2.5 3.1 -1.7 0.8 -2.5 2 -2.5 3.7 0 2.7 -0.1 2.7 -4.6 1.4z"/>
  <path d="M90.8 128.3 c-1 -0.2 -1.8 -1 -1.8 -1.7 0 -0.9 -2.6 -1.5 -8.2 -1.9 -13.9 -1.1 -15.9 -1 -16.5 1.3 -0.3 1.2 -1.4 2 -2.7 2 -2.1 0 -2.2 -0.3 -1.8 -5.7 0.5 -7 2.5 -12.3 4.6 -12.3 0.9 0 3.2 -0.9 5.3 -1.9 2.1 -1 7.9 -2.6 12.8 -3.5 5 -0.9 17.8 -3.2 28.5 -5.2 63 -11.4 70.1 -12.6 75.1 -12 7.7 0.8 16.4 6.6 10.1 6.6 -1.5 0 -1.5 0.2 -0.2 1 1.3 0.9 1.3 1 0 1 -1.1 0 -1.5 1.2 -1.5 4.3 0 4 -0.8 6.4 -6.6 19.5 -2.2 5 -3.4 5.3 -4.3 1.1 -1.2 -6.2 -0.8 -7.9 1.9 -7.9 1.4 0 2.5 -0.4 2.5 -1 0 -0.5 -0.4 -1 -1 -1 -0.5 0 -1 -0.9 -1 -2 0 -1.9 -0.4 -2 -5.7 -1.3 -3.2 0.3 -8.3 1.1 -11.3 1.7 -4.9 1 -5.5 1.4 -5.8 3.9 -0.3 2.1 -0.9 2.7 -2.7 2.7 -2.1 0 -2.3 -0.3 -1.8 -3.3 0.4 -2.7 0 -3.7 -2.6 -6 -3.1 -2.8 -6.1 -3.6 -6.1 -1.6 0 0.6 -0.7 1.7 -1.5 2.5 -2.2 2.2 -1.8 6.4 0.7 9.1 l2.1 2.3 -3.6 0 c-2.3 0 -3.7 -0.5 -3.7 -1.2 0 -1.5 -4.1 -3.6 -5.8 -3 -0.7 0.2 -1.2 1.5 -1.2 2.8 0 1.7 -0.6 2.4 -1.9 2.4 -1.3 0 -1.8 -0.7 -1.8 -2.5 0 -6 -7.6 -8.8 -10.7 -4 -2.2 3.4 -2 5.2 0.9 8.1 3.2 3.2 3.1 3.4 -0.4 3.4 -4.5 0 -6.1 -1 -6.1 -3.6 0 -2.7 -0.9 -2.9 -5.8 -1.2 -3 1.1 -3.5 1 -4.4 -0.5 -1.5 -2.7 -5.4 -3.9 -8.3 -2.5 -3.4 1.5 -3.8 6.7 -0.8 10 1.5 1.7 1.4 1.8 -1.8 1.7 -1.9 -0.1 -4.2 -0.3 -5.1 -0.6z"/>
 </g>
 <g fill="#2064b3">
  <path d="M74.7 182 c-1.3 -5 -0.8 -8 1.3 -8 2.6 0 6 -3.4 6 -6.1 0 -3.2 2.5 -4.9 6.9 -4.9 3.9 0 4.1 0.1 4.1 3.1 0 2.4 -0.3 3 -1.6 2.5 -1.7 -0.7 -4.8 2.2 -12 10.9 -3.9 4.8 -4.1 4.8 -4.7 2.5z"/>
  <path d="M314 170 c-1.8 -3.4 -0.2 -5.9 5.6 -8.7 3 -1.4 5.6 -2.4 5.8 -2.2 0.1 0.2 1.3 1.9 2.5 3.7 l2.2 3.2 -2.3 0 c-1.6 0 -3 1 -4.1 3 -1.5 2.4 -2.5 3 -5.2 3 -2.4 0 -3.8 -0.6 -4.5 -2z"/>
  <path d="M56 157.8 c0 -8.2 3.1 -30.3 4.6 -33.6 l1.6 -3.4 16.4 0.4 c12.3 0.2 16 0.6 14.9 1.4 -2.1 1.6 -1.9 2.7 0.5 2.1 1.1 -0.3 1.8 -0.2 1.5 0.3 -0.2 0.4 1.1 1.5 3 2.6 3.4 1.8 3.4 1.8 6 -0.6 2 -1.9 2.6 -3.2 2.3 -5.7 -0.4 -3.7 1.1 -4.7 8.8 -5.8 2.7 -0.4 5.6 -1.3 6.4 -1.9 1.3 -0.9 1.3 -0.9 0.2 0.6 -2.4 3 -2.2 6.5 0.5 7.7 2.7 1.3 6.3 1.4 7.9 0.3 1.7 -1.1 3.4 -4.8 3.4 -7.5 0 -2.6 1.6 -3.7 5.4 -3.7 2.7 0 7.6 2.2 7.6 3.4 0 1.6 3.4 3.5 6.2 3.6 3 0 6.4 -3.9 6.9 -8 0.4 -2.2 1.2 -2.7 6.4 -3.7 3.3 -0.7 10 -1.5 14.9 -1.9 8.6 -0.7 8.8 -0.6 8.2 1.3 -0.4 1.4 -0.2 2.3 0.8 2.6 2.4 0.9 -0.1 7.7 -2.8 7.7 -1.6 0 -1.8 0.2 -0.7 0.9 1.6 1.1 0.5 4.9 -6.6 22 -4.4 10.4 -7.3 14.7 -7.3 10.7 0 -0.9 -0.4 -1.6 -1 -1.6 -0.5 0 -1 -1.8 -1 -3.9 0 -3.3 0.4 -4 2.3 -4.4 1.2 -0.2 -2.6 -0.5 -8.5 -0.6 -6.5 0 -10.8 -0.5 -10.8 -1.1 0 -0.6 -3 -1 -7 -1 -4 0 -7 0.4 -7 1 0 0.6 -2 1 -4.5 1 -2.5 0 -4.5 -0.4 -4.5 -1 0 -0.5 -0.9 -1 -2 -1 -1.1 0 -2 0.5 -2 1.1 0 0.9 -3.5 1 -13.1 0.5 -7.2 -0.4 -13.6 -0.9 -14.3 -1.2 -1.4 -0.5 -2.9 2.8 -6 13.2 l-2.4 7.9 -10.8 -0.3 c-7.2 -0.3 -11.7 -0.9 -13.1 -1.8 -1.2 -0.8 -3.4 -1.4 -4.8 -1.4 -2.2 0 -2.5 0.4 -2.5 3.5 0 2.8 -0.4 3.5 -2 3.5 -1.7 0 -2 -0.7 -2 -4.2z"/>
 </g>
 <g fill="#2054a6">
  <path d="M50 207.3 c0 -1.6 0.5 -6.2 1 -10.3 0.6 -4.1 1.7 -13.4 2.5 -20.6 0.8 -7.2 1.8 -14.2 2.3 -15.5 0.5 -1.3 0.8 -4.4 0.6 -6.8 -0.1 -2.4 0.1 -4 0.4 -3.4 0.4 0.5 3.1 1.1 6.1 1.2 3 0.1 6.4 0.9 7.5 1.6 1.2 0.7 5.6 1.5 10 1.7 l7.9 0.3 2.3 -7.9 c4.3 -14.2 5.7 -16 11.4 -13.6 2 0.8 3.4 0.9 4.8 0.1 2.5 -1.3 6.4 -1.5 4.4 -0.2 -0.9 0.5 -0.1 1 2.5 1.4 5.7 1 10.3 0.8 10.3 -0.3 0 -0.5 2.3 -1 5 -1 2.8 0 5 0.5 5 1 0 0.6 0.7 1 1.5 1 0.8 0 1.5 -0.4 1.5 -1 0 -0.6 4 -1 10 -1 6 0 10 0.4 10 1 0 0.6 1.1 1 2.5 1 1.4 0 2.5 -0.4 2.5 -0.8 0 -0.9 4.7 -0.8 5.7 0.1 1 1.1 8.1 0.8 8.8 -0.3 1.2 -1.9 3.6 0.2 3.3 2.9 -0.4 3.1 -2 5.1 -4.2 5.1 -0.9 0 -1.6 0.5 -1.6 1 0 0.6 0.5 1 1 1 3.1 0 -0.7 9.3 -6.2 15.1 -5.7 6.1 -11.3 7.9 -24 7.9 -9.7 0 -10.9 0.2 -10.4 1.6 0.5 1.4 0.1 1.5 -2.6 0.9 -1.8 -0.5 -11.2 -1 -20.8 -1.1 -21.5 -0.4 -21.9 -0.5 -21.3 -2.1 0.3 -0.7 -0.2 -1.3 -1.2 -1.3 -0.9 0 -1.3 0.5 -1 1 0.3 0.6 -0.1 1 -1 1 -0.9 0 -1.3 0.5 -1 1.1 1.1 1.7 -3.7 7.9 -6.2 7.9 -1.6 0 -2 0.5 -1.6 2 0.4 1.4 -2.3 5.3 -10.3 14.6 -6 7 -11.8 13.5 -12.8 14.5 -2.8 2.7 -4.6 2.4 -4.6 -0.8z"/>
  <path d="M138 188.3 c-0.8 -0.3 -3.4 -1.4 -5.7 -2.4 -2.3 -1.1 -4.5 -1.9 -4.8 -1.9 -0.7 0 -3.8 -1.3 -12.2 -5.2 -2.4 -1.1 -4.3 -2.4 -4.3 -2.9 0 -0.5 2.5 -0.9 5.5 -0.9 3 0 5.5 0.4 5.5 0.8 0 1.2 4.6 3.2 7.3 3.2 1.3 0 2.9 0.9 3.7 2 1 1.4 2.6 2 5.2 2 3.6 0 3.8 0.2 3.8 3 0 3 -0.9 3.4 -4 2.3z"/>
  <path d="M319 172 c-2.5 -0.4 -3.6 -0.8 -2.5 -0.9 1.3 -0.1 2.8 -1.9 4.4 -5.1 3.6 -7.3 4.6 -6.9 11.6 4.3 l1.7 2.7 -5.3 -0.2 c-3 0 -7.4 -0.4 -9.9 -0.8z"/>
 </g>
 <g fill="#223a77">
  <path d="M50.2 206.1 c-0.1 -2 0.3 -4.3 0.9 -5.1 0.8 -1.2 0.9 -1 0.4 0.6 -0.3 1.3 0 2.8 1 3.7 1.7 1.7 1.1 4.4 -0.9 4.4 -0.8 0 -1.3 -1.4 -1.4 -3.6z"/>
  <path d="M141.3 189.3 c-1.3 -0.2 -2.3 -1.2 -2.3 -2.1 0 -1.2 -0.3 -1.3 -1.1 -0.5 -0.8 0.8 -2.2 0.5 -5 -1 -2.1 -1.1 -3.9 -2.5 -3.9 -3 0 -0.5 -0.7 -0.7 -1.5 -0.3 -1.7 0.6 -8.5 -2.3 -8.5 -3.6 0 -0.5 -0.5 -0.6 -1.1 -0.3 -1 0.7 -3.7 -0.2 -11.4 -3.5 -2.2 -1 -6.5 -2.9 -9.7 -4.2 -9.4 -3.9 -6.5 -4.8 15.1 -4.8 13.5 0 19.2 0.3 20.3 1.3 1.4 1.1 6 8.2 11.5 17.5 1.9 3.4 2.2 5.4 0.5 5.1 -0.4 -0.1 -1.7 -0.4 -2.9 -0.6z"/>
 </g>
 <g fill="#272b2e">
  <path d="M231.1 156.9 c-0.1 -8.8 0.1 -17.6 0.5 -19.5 l0.6 -3.4 9.9 0 9.9 0 0 19.5 0 19.5 -10.4 0 -10.4 0 -0.1 -16.1z"/>
  <path d="M265.2 153.8 l0.3 -19.3 20 -0.5 c17.3 -0.4 20.4 -0.7 22.8 -2.4 2.2 -1.5 2.7 -2.6 2.7 -6 0 -8.3 -2 -9 -26 -9.6 l-19.5 -0.5 -0.3 -7.8 c-0.3 -7.6 -0.3 -7.7 2.5 -8.8 1.9 -0.8 9.8 -1 24.1 -0.6 20.9 0.5 21.3 0.5 27 3.3 7.3 3.7 11.6 9.8 12.7 17.9 0.7 6.2 0 12.6 -2 16.5 -1.8 3.5 -8.3 10 -10 10 -2.4 0 -2.7 1.9 -0.6 4.9 2.4 3.3 1.7 4.4 -3.4 5.7 -1.7 0.4 -5 1.6 -7.5 2.6 l-4.5 1.9 -2 -2.5 c-1.1 -1.4 -3 -3.9 -4.3 -5.6 -1.9 -2.4 -3.1 -3 -6.2 -3 -4.6 0 -5 0.9 -5 13.8 l0 9.2 -10.5 0 -10.5 0 0.2 -19.2z"/>
  <path d="M347.7 172.3 c-0.4 -0.3 -0.7 -16.8 -0.7 -36.5 l0 -35.8 2.7 -1.1 c1.7 -0.6 13.1 -0.9 30.2 -0.7 l27.6 0.3 0.3 8.7 0.3 8.8 -19.8 0.2 -19.8 0.3 -0.3 5.3 -0.3 5.2 17.3 0 c12.2 0 17.8 0.4 18.6 1.2 1.6 1.6 1.6 13.3 0 14.6 -0.7 0.5 -8.6 1 -17.7 1.1 -9 0.1 -16.8 0.4 -17.2 0.7 -1.1 0.6 -1.2 8.5 -0.1 10.1 0.6 0.9 6.2 1.3 20.2 1.5 l19.5 0.3 0.3 8.3 0.3 8.2 -30.4 0 c-16.7 0 -30.7 -0.3 -31 -0.7z"/>
  <path d="M425.2 154.3 l0.3 -18.8 18.6 -0.5 c20.8 -0.6 22.1 -1 23.3 -7.5 1 -5 -0.2 -8.2 -3.9 -10.5 -2.9 -1.8 -4.9 -2 -20.9 -2 l-17.7 0 0.3 -8.2 0.3 -8.3 22 0 c18.6 0.1 22.5 0.3 25 1.7 1.7 1 4 2.1 5.1 2.7 5.6 2.6 11.4 13.9 11.4 22.3 0 4.6 -2.1 10.1 -5.7 15.2 -5 7.1 -16.8 11.6 -30.3 11.6 l-7 0 0 10.5 0 10.5 -10.5 0 -10.5 0 0.2 -18.7z"/>
  <path d="M503 136.1 l0 -37 4.3 -0.6 c2.4 -0.4 7.1 -0.5 10.3 -0.3 l5.9 0.4 0.3 28.2 0.2 28.2 17.8 0.2 17.7 0.3 0.3 8.8 0.3 8.7 -28.6 0 -28.5 0 0 -36.9z"/>
  <path d="M596 158.3 c0 -10.6 -0.4 -15.1 -1.3 -16.2 -1.1 -1.4 -12.3 -19.5 -18.2 -29.6 -1.1 -1.9 -3.3 -5.5 -4.8 -8 -1.6 -2.6 -2.6 -5 -2.2 -5.3 1.2 -1.3 21.3 -1.2 22.3 0.1 1.5 1.8 12.2 20.8 12.2 21.7 0 0.4 0.8 1.4 1.8 2.4 1.8 1.5 1.9 1.5 3 -0.6 0.6 -1.3 2.9 -5.4 5.2 -9.3 2.2 -3.8 4.7 -8.7 5.6 -10.7 1.3 -3 2.2 -3.8 5.4 -4.3 4.8 -0.8 18 -0.3 18.6 0.7 0.5 0.8 -0.2 2.2 -5.9 11.8 -6 10.2 -7.2 12.1 -12.2 19.9 -8.3 12.7 -8.5 13.4 -8.5 28.6 l0 13.5 -10.5 0 -10.5 0 0 -14.7z"/>
  <path d="M231.7 114.8 c-0.2 -0.7 -0.4 -4.7 -0.3 -8.8 l0.1 -7.5 10 0 10 0 0 8.5 0 8.5 -9.6 0.3 c-7.2 0.2 -9.8 -0.1 -10.2 -1z"/>
 </g>
 <g fill="#000000">
  <path d="M260 232.8 c0 -3.3 -0.3 -3.9 -1.2 -3 -1.8 1.8 -6.3 1.4 -8.2 -0.7 -2.1 -2.3 -2.4 -9.4 -0.6 -11.7 2.6 -3 5 -3.6 7.6 -1.9 1.3 0.8 2.4 1.1 2.4 0.5 0 -0.5 0.9 -1 2 -1 1.9 0 2 0.7 2 11 0 10.3 -0.1 11 -2 11 -1.7 0 -2 -0.7 -2 -4.2z m-1.1 -6.2 c0.7 -0.8 1.1 -3 0.9 -4.8 -0.3 -2.9 -0.6 -3.3 -3.3 -3.3 -2.7 0 -3 0.4 -3.3 3.3 -0.2 1.9 -0.1 4 0.2 4.8 0.7 1.8 4 1.8 5.5 0z"/>
  <path d="M294 226 l0 -11 3.3 0.2 c1.7 0.1 3.9 -0.2 4.8 -0.6 1.1 -0.5 2.6 0.1 4.4 1.7 5.3 4.5 2.9 14.7 -3.5 14.7 -1.4 0 -3.1 -0.5 -3.8 -1.2 -0.9 -0.9 -1.2 -0.3 -1.2 3 0 3.5 -0.3 4.2 -2 4.2 -1.9 0 -2 -0.7 -2 -11z m10.5 -3 c0 -4.3 -0.1 -4.5 -3 -4.5 -2.4 0 -3.1 0.5 -3.3 2.4 -0.2 1.2 -0.1 3.4 0.3 4.8 0.4 1.9 1.1 2.4 3.3 2.1 2.5 -0.3 2.7 -0.6 2.7 -4.8z"/>
  <path d="M515 236 c0 -0.6 0.8 -1.4 1.8 -1.7 3 -1.1 3 -2.4 0.1 -11 -2.8 -8.3 -2.8 -8.4 -0.7 -8.1 1.5 0.2 2.5 1.7 3.8 5.8 l1.7 5.5 1.2 -3 c0.7 -1.6 1.5 -4.2 1.8 -5.7 0.4 -1.9 1.2 -2.8 2.4 -2.8 1.1 0 1.9 0.4 1.9 0.9 0 1.6 -6.2 18.5 -7.2 19.9 -1.3 1.5 -6.8 1.6 -6.8 0.2z"/>
  <path d="M559.6 235.5 c0.4 -0.8 1.3 -1.5 2 -1.5 2.6 0 2.5 -2.6 -0.5 -10.9 -3 -8.2 -3 -8.2 -0.8 -7.9 1.7 0.2 2.5 1.5 3.7 5.6 0.8 2.8 1.8 5.2 2.1 5.2 0.3 0 1.2 -2.4 2 -5.2 1.1 -4.2 1.9 -5.4 3.6 -5.6 2.2 -0.3 2.2 -0.2 -1.3 9.5 -1.9 5.3 -4 10.3 -4.6 11 -1.6 1.9 -6.9 1.7 -6.2 -0.2z"/>
  <path d="M231 220 l0 -11 7 0 c6.3 0 7 0.2 7 2 0 1.7 -0.7 2 -5 2 -4.6 0 -5 0.2 -5 2.4 0 2.3 0.5 2.5 4.8 2.8 3.4 0.2 4.7 0.7 4.7 1.8 0 1.1 -1.3 1.6 -4.7 1.8 -4.6 0.3 -4.8 0.5 -4.8 3.3 0 2.8 0.1 2.9 5 2.9 3.8 0 5 0.4 5 1.5 0 1.2 -1.4 1.5 -7 1.5 l-7 0 0 -11z"/>
  <path d="M269 229 c-0.5 -1 -1 -4.6 -1 -7.9 0 -5.4 0.2 -6.1 2 -6.1 1.6 0 1.9 0.8 2.2 6.3 0.3 5.9 0.4 6.2 2.8 6.2 2.4 0 2.5 -0.3 2.8 -6.2 0.3 -5.5 0.6 -6.3 2.2 -6.3 1.8 0 2 0.7 2 7.9 l0 7.8 -6 0.1 c-4.9 0.1 -6.2 -0.3 -7 -1.8z"/>
  <path d="M286 223 c0 -7.3 0.2 -8 2 -8 1.8 0 2 0.7 2 8 0 7.3 -0.2 8 -2 8 -1.8 0 -2 -0.7 -2 -8z"/>
  <path d="M313 223 l0 -8 2.8 0.1 c1.5 0.1 3.4 -0.1 4.2 -0.5 0.9 -0.3 2.4 0 3.4 0.7 1.6 1.2 2.3 1.2 4.8 0 2.5 -1.3 3.2 -1.3 5.3 0.1 2.3 1.5 2.5 2.3 2.5 8.6 0 6.3 -0.2 7 -2 7 -1.6 0 -1.9 -0.8 -2.2 -6.2 -0.3 -6 -0.4 -6.3 -2.8 -6.3 -2.4 0 -2.5 0.3 -2.8 6.3 -0.3 5.4 -0.6 6.2 -2.2 6.2 -1.8 0 -2 -0.7 -2 -6.6 0 -6.2 -0.1 -6.5 -2.2 -6.2 -2.1 0.3 -2.3 0.9 -2.6 6.6 -0.3 5.4 -0.6 6.2 -2.2 6.2 -1.8 0 -2 -0.7 -2 -8z"/>
  <path d="M342.4 230.2 c-1.8 -1.1 -3.4 -4.9 -3.4 -7.7 0 -1.6 1.2 -3.8 3 -5.7 2.5 -2.4 3.6 -2.9 5.8 -2.3 3.9 1 6.2 3.4 6.2 6.7 0 2.7 -0.1 2.8 -5.6 2.8 -4.7 0 -5.5 0.3 -5 1.6 0.3 0.9 0.6 1.8 0.6 2 0 0.9 5.7 0.3 6.7 -0.7 2 -2 3.6 0.1 1.7 2.2 -1.7 1.9 -7.8 2.6 -10 1.1z m7.6 -10.2 c0 -1.7 -3.4 -2.9 -5.3 -1.9 -2.8 1.6 -2 2.9 1.8 2.9 1.9 0 3.5 -0.4 3.5 -1z"/>
  <path d="M357 223 c0 -7.3 0.2 -8 2 -8 1.1 0 2 0.5 2 1 0 0.6 1.1 0.3 2.4 -0.5 1.7 -1.1 3 -1.3 4.8 -0.6 3.2 1.2 3.8 2.8 3.8 10.2 0 5.2 -0.2 5.9 -2 5.9 -1.8 0 -2 -0.7 -2 -6 0 -4.7 -0.4 -6.2 -1.6 -6.7 -3.2 -1.2 -4.9 1.1 -5.2 7.1 -0.3 4.8 -0.6 5.6 -2.2 5.6 -1.8 0 -2 -0.7 -2 -8z"/>
  <path d="M378.2 229.8 c-0.7 -0.7 -1.2 -3.5 -1.2 -6.4 0 -3.7 -0.4 -5.4 -1.5 -5.8 -0.8 -0.3 -1.5 -1 -1.5 -1.6 0 -0.5 0.7 -1 1.5 -1 0.8 0 1.5 -0.9 1.5 -2 0 -1.3 0.7 -2 2 -2 1.3 0 2 0.7 2 2 0 1.1 0.7 2 1.5 2 0.8 0 1.5 0.7 1.5 1.5 0 0.8 -0.7 1.5 -1.5 1.5 -1.1 0 -1.5 1.2 -1.5 5 0 3.8 0.4 5 1.5 5 0.8 0 1.5 0.7 1.5 1.5 0 1.8 -4.1 2 -5.8 0.3z"/>
  <path d="M395 220 c0 -10.3 0.1 -11 2 -11 1.9 0 2 0.7 2 11 0 10.3 -0.1 11 -2 11 -1.9 0 -2 -0.7 -2 -11z"/>
  <path d="M403 222.9 c0 -7.8 0.1 -8 2.3 -7.8 1.2 0.2 3.2 -0.1 4.5 -0.5 1.5 -0.5 3.1 -0.2 4.7 0.8 2.3 1.5 2.5 2.3 2.5 8.6 0 6.3 -0.2 7 -2 7 -1.6 0 -1.9 -0.8 -2.2 -6.2 -0.3 -6 -0.4 -6.3 -2.8 -6.3 -2.4 0 -2.5 0.3 -2.8 6.3 -0.3 5.4 -0.6 6.2 -2.2 6.2 -1.8 0 -2 -0.7 -2 -8.1z"/>
  <path d="M423.1 225.5 c-3.4 -9.1 -3.6 -10.5 -1.3 -10.5 1.5 0 2.2 1.1 3.2 4.8 2 7.1 2.3 7.2 4.1 1.2 1.2 -4.1 2.2 -5.6 3.7 -5.8 2 -0.3 2 -0.2 -0.6 7.7 -2.2 6.9 -3 8.1 -4.8 8.1 -1.8 0 -2.7 -1.1 -4.3 -5.5z"/>
  <path d="M439.1 229.1 c-2.7 -2.7 -2.9 -10.1 -0.3 -12.3 4.1 -3.7 10 -2.8 12.1 1.9 2.1 4.6 1.5 5.3 -4.5 5.3 -4.7 0 -5.5 0.3 -5.2 1.7 0.4 2.3 3.4 2.8 6.4 1.2 2.8 -1.5 4.3 -0.5 2.8 1.9 -1.7 2.6 -8.8 2.8 -11.3 0.3z m8.9 -9.1 c0 -1.7 -3.4 -2.9 -5.3 -1.9 -2.8 1.6 -2 2.9 1.8 2.9 1.9 0 3.5 -0.4 3.5 -1z"/>
  <path d="M455 223 l0 -7.9 3.3 0.1 c1.9 0.1 3.9 -0.2 4.6 -0.6 0.6 -0.4 2.3 0 3.6 0.8 2.3 1.5 2.5 2.3 2.5 8.6 0 6.3 -0.2 7 -2 7 -1.6 0 -1.9 -0.8 -2.2 -6.2 -0.3 -6 -0.4 -6.3 -2.8 -6.3 -2.4 0 -2.5 0.3 -2.8 6.3 -0.3 5.4 -0.6 6.2 -2.2 6.2 -1.8 0 -2 -0.7 -2 -8z"/>
  <path d="M475 229.1 c-0.5 -1.1 -1 -4 -1 -6.5 0 -2.5 -0.4 -4.6 -1 -4.6 -0.5 0 -1 -0.7 -1 -1.5 0 -0.8 0.5 -1.5 1 -1.5 0.6 0 1 -0.9 1 -2 0 -1.3 0.7 -2 2 -2 1.2 0 2 0.7 2 1.6 0 0.9 0.9 1.8 2 2.1 1.1 0.3 2 1 2 1.5 0 0.5 -0.9 1.2 -2 1.5 -1.6 0.4 -2 1.4 -2 4.9 0 3.3 0.5 4.6 2 5.4 2.9 1.6 2.4 3 -1 3 -1.9 0 -3.3 -0.7 -4 -1.9z"/>
  <path d="M487.4 230.2 c-2.8 -1.8 -4.2 -7.8 -2.8 -11.7 0.9 -2.3 6 -4.6 8.8 -3.9 5.5 1.4 7.7 8.5 4.3 13.8 -1.4 2 -2.5 2.6 -5.5 2.6 -2 0 -4.2 -0.4 -4.8 -0.8z m7.6 -4.7 c0.6 -1.6 0.6 -3.4 0 -5.1 -0.8 -2 -1.6 -2.5 -3.8 -2.2 -2.9 0.3 -3.9 2.9 -2.8 7.4 0.9 3.4 5.3 3.3 6.6 -0.1z"/>
  <path d="M503 223 l0 -8 2.8 0.1 c1.5 0.1 3.5 -0.2 4.5 -0.6 1.3 -0.5 1.7 -0.2 1.7 1.3 0 1.4 -0.8 2.2 -2.2 2.4 -2.1 0.3 -2.3 0.9 -2.6 6.6 -0.3 5.4 -0.6 6.2 -2.2 6.2 -1.8 0 -2 -0.7 -2 -8z"/>
  <path d="M542.4 230.2 c-0.6 -0.4 -1.6 -1.7 -2.3 -2.9 -1.6 -3.1 0.5 -4 3.3 -1.4 1.2 1.2 3 2.1 3.8 2.1 5.9 0 6.6 -4.3 1.1 -6 -5.9 -1.9 -8.3 -3.8 -8.3 -6.5 0 -5.9 8.1 -8.6 13.4 -4.4 4.8 3.7 2.4 5.4 -3.2 2.2 -2.5 -1.4 -3.2 -1.5 -4.6 -0.4 -2.6 2.2 -1.9 3.9 2.2 5.1 8.2 2.7 10.5 6.7 6.2 11 -2 2 -9.3 2.8 -11.6 1.2z"/>
  <path d="M577.6 229.4 c-2.2 -2.1 -2 -3.4 0.4 -3.4 1.1 0 2 0.5 2 1 0 0.6 1.4 1 3 1 4.3 0 3.8 -2.6 -0.6 -3.7 -2 -0.4 -4.3 -1.8 -5.1 -2.9 -1.2 -1.8 -1.1 -2.4 0.4 -4.2 2.9 -3.5 6.6 -3.7 9.9 -0.8 2.4 2.1 2.6 2.5 1.1 2.6 -1 0 -2.7 -0.4 -3.7 -1 -2.1 -1.1 -5.3 -0.3 -4.7 1.3 0.2 0.6 1.9 1.5 3.8 2 5.9 1.5 7.7 4.8 4.3 8.1 -2 2.1 -8.8 2.1 -10.8 0z"/>
  <path d="M595.2 229.8 c-0.7 -0.7 -1.2 -3.6 -1.2 -6.5 0 -2.9 -0.4 -5.3 -1 -5.3 -0.5 0 -1 -0.7 -1 -1.5 0 -0.8 0.5 -1.5 1 -1.5 0.6 0 1 -0.9 1 -2 0 -1.3 0.7 -2 2 -2 1.3 0 2 0.7 2 2 0 1.1 0.7 2 1.5 2 0.8 0 1.5 0.7 1.5 1.5 0 0.8 -0.7 1.5 -1.5 1.5 -2.1 0 -2.1 8.8 -0.1 9.6 0.8 0.3 1.7 1.2 2 2 0.7 1.8 -4.4 2 -6.2 0.2z"/>
  <path d="M606.1 229.1 c-2.3 -2.3 -2.8 -7.9 -1 -11.2 2.5 -4.8 11 -4.3 13 0.8 1.8 4.7 1.3 5.3 -4.7 5.3 -4.7 0 -5.5 0.3 -5.2 1.7 0.4 2.3 3.4 2.8 6.4 1.2 2.8 -1.5 4.3 -0.5 2.8 1.9 -1.7 2.6 -8.8 2.8 -11.3 0.3z m8.9 -9.1 c0 -1.7 -3.4 -2.9 -5.3 -1.9 -2.8 1.6 -2 2.9 1.8 2.9 1.9 0 3.5 -0.4 3.5 -1z"/>
  <path d="M622 223 l0 -8 2.8 0.2 c1.5 0.1 3.6 -0.2 4.8 -0.5 1.1 -0.4 2.8 -0.1 3.9 0.7 1.6 1.2 2.2 1.2 4.2 -0.1 2.1 -1.4 2.6 -1.4 4.8 0.1 2.3 1.5 2.5 2.3 2.5 8.6 0 6.3 -0.2 7 -2 7 -1.6 0 -1.9 -0.8 -2.2 -6.2 -0.3 -5.7 -0.5 -6.3 -2.5 -6.6 -2.2 -0.3 -2.3 0 -2.3 6.2 0 5.9 -0.2 6.6 -2 6.6 -1.6 0 -1.9 -0.8 -2.2 -6.2 -0.3 -6 -0.4 -6.3 -2.8 -6.3 -2.4 0 -2.5 0.3 -2.8 6.3 -0.3 5.4 -0.6 6.2 -2.2 6.2 -1.8 0 -2 -0.7 -2 -8z"/>
  <path d="M286.2 210.3 c0.2 -1 1 -1.8 1.8 -1.8 0.8 0 1.6 0.8 1.8 1.8 0.2 1.2 -0.3 1.7 -1.8 1.7 -1.5 0 -2 -0.5 -1.8 -1.7z"/>
 </g>
</svg>